<svg width="64" height="64" viewBox="0 0 64 64" fill="none" xmlns="http://www.w3.org/2000/svg">
<g clip-path="url(#clip0)">
<path d="M62.9334 24.531V60.7976C62.9299 61.9744 61.9767 62.9275 60.8 62.931H3.19999C2.02325 62.9275 1.07012 61.9744 1.06662 60.7976V24.531L1.51462 24.1896L1.78124 24.531H62.2187L62.4854 24.1896L62.9334 24.531Z" fill="#A4C2F7"/>
<path d="M59.7334 24.531V60.7976C59.7299 61.9744 58.7767 62.9275 57.6 62.931H3.2C2.02325 62.9275 1.07012 61.9744 1.06662 60.7976V24.531H59.0187L59.2854 24.1896L59.7334 24.531Z" fill="#D4E1F4"/>
<path d="M62.4854 24.1896L62.2187 24.531L33.0667 46.931H30.9334L1.78137 24.531L1.51474 24.1896L11.7334 16.243L25.792 5.331L30.7094 1.51238C31.4661 0.915003 32.5339 0.915003 33.2907 1.51238L38.2081 5.331L52.2667 16.243L62.4854 24.1896Z" fill="#A4C2F7"/>
<path d="M52.2667 7.46426V32.1789L49.0667 34.6429L33.0667 46.9309H30.9334L11.7334 32.1789V7.46426C11.7369 6.28751 12.69 5.33439 13.8667 5.33089H50.1334C51.3101 5.33451 52.2632 6.28751 52.2667 7.46426Z" fill="#A4C2F7"/>
<path d="M49.0667 7.46426V34.6429L33.0667 46.9309H30.9334L11.7334 32.1789V7.46426C11.7369 6.28751 12.69 5.33439 13.8667 5.33089H46.9334C48.1101 5.33451 49.0632 6.28751 49.0667 7.46426Z" fill="#E3E7F2"/>
<path d="M62.5174 62.0562C62.1192 62.6074 61.48 62.9329 60.8 62.9309H3.19998C2.52011 62.9329 1.88086 62.6074 1.4826 62.0562L25.92 43.0802L30.7094 39.3576C31.4661 38.7602 32.5339 38.7602 33.2907 39.3576L38.0801 43.0802L62.5174 62.0562Z" fill="#A4C2F7"/>
<path d="M1.48274 62.0563C1.49987 62.0798 1.52437 62.0979 1.54137 62.1214C1.60862 62.2063 1.68212 62.2861 1.76112 62.3603C1.80799 62.403 1.85712 62.4433 1.90837 62.4808C1.97637 62.5341 2.04762 62.5833 2.12174 62.628C2.17937 62.6611 2.23587 62.6941 2.29562 62.7219C2.38299 62.7623 2.47312 62.7961 2.56549 62.8233C2.61987 62.8404 2.67212 62.8616 2.72762 62.8745C2.88249 62.9109 3.04099 62.9299 3.20012 62.931H6.40012C6.24174 62.9296 6.08399 62.9108 5.92974 62.8745C5.87324 62.8618 5.82312 62.8404 5.76762 62.8233C5.67524 62.7961 5.58512 62.7624 5.49774 62.7219C5.43799 62.6941 5.38149 62.6611 5.32387 62.628C5.24987 62.5833 5.17862 62.5341 5.11049 62.4808C5.05924 62.4433 5.01012 62.403 4.96324 62.3603C4.88424 62.2861 4.81087 62.2063 4.74349 62.1214C4.72637 62.0979 4.70187 62.0798 4.68487 62.0563C4.41374 61.6926 4.26712 61.2513 4.26674 60.7976V24.531L4.71474 24.1896L14.9334 16.243V7.46426C14.9369 6.28751 15.89 5.33439 17.0667 5.33089H13.8667C12.69 5.33439 11.7369 6.28751 11.7334 7.46426V16.2429L1.51474 24.1895L1.06674 24.5309V60.7975C1.06812 61.2501 1.21512 61.6903 1.48599 62.053L1.48274 62.0563Z" fill="white"/>
<path d="M33.5999 1.75226L33.2906 1.51226C32.5338 0.91488 31.4661 0.91488 30.7092 1.51226L25.7918 5.33088H28.9918L33.5999 1.75226Z" fill="white"/>
<path d="M0 60.7976V46.931V24.531H2.13337V46.931V60.7976H0Z" fill="white"/>
<path d="M0.661375 53.2456C0.721875 53.2764 0.7865 53.298 0.853375 53.3096C0.923875 53.3215 0.99525 53.3286 1.06675 53.331C1.34913 53.3269 1.6195 53.2164 1.82413 53.0216C1.9205 52.9196 1.99663 52.8001 2.04813 52.6696C2.209 52.2718 2.12138 51.8165 1.82413 51.507C1.72213 51.4106 1.60263 51.3345 1.47213 51.283C1.34388 51.2284 1.20613 51.1994 1.06675 51.1976C0.784375 51.2017 0.514 51.3123 0.309375 51.507C-0.103125 51.9276 -0.103125 52.601 0.309375 53.0216L0.469375 53.1496C0.528875 53.19 0.593375 53.2224 0.661375 53.2456Z" fill="#428DFF"/>
<path d="M63.9435 24.2511C63.9287 24.1879 63.9084 24.1262 63.8828 24.0666C63.8523 24.01 63.8166 23.9564 63.7761 23.9065C63.7339 23.8454 63.6852 23.7889 63.631 23.7381C63.6139 23.7232 63.6065 23.7028 63.5884 23.6889L53.3335 15.7221V7.46492C53.3335 5.69767 51.9007 4.26492 50.1335 4.26492H38.574L33.9456 0.671424C32.802 -0.219576 31.1991 -0.219576 30.0555 0.671424L25.4263 4.26492H13.8667C12.0995 4.26492 10.6667 5.69767 10.6667 7.46492V15.7221L0.412875 23.6889C0.1565 23.8926 0.010125 24.2043 0.017125 24.5316H0V47.9982C0 48.5873 0.477625 49.0648 1.06662 49.0648C1.65562 49.0648 2.13325 48.5872 2.13325 47.9982V26.1562L19.6127 39.7296C20.0784 40.0907 20.7487 40.0059 21.1099 39.5402C21.471 39.0746 21.3862 38.4042 20.9205 38.0431L3.16275 24.2533L10.6667 18.4229V26.6651C10.6667 27.2542 11.1444 27.7317 11.7334 27.7317C12.3225 27.7317 12.8 27.2541 12.8 26.6651V7.46505C12.8 6.87592 13.2776 6.39842 13.8666 6.39842H50.1333C50.7224 6.39842 51.1999 6.87605 51.1999 7.46505V26.6651C51.1999 27.2542 51.6774 27.7317 52.2665 27.7317C52.8556 27.7317 53.3331 27.2541 53.3331 26.6651V18.4229L60.8371 24.2533L43.0475 38.0677C42.5821 38.4291 42.4979 39.0993 42.8592 39.5648C43.2206 40.0302 43.8909 40.1144 44.3564 39.7531L61.8667 26.1563V60.1989L33.9435 38.5124C32.8006 37.6227 31.1995 37.6227 30.0566 38.5124L2.13337 60.1988V56.5316C2.13337 55.9424 1.65575 55.4649 1.06675 55.4649C0.47775 55.4649 0 55.9426 0 56.5317V60.7983C0.00425 61.1418 0.064375 61.4822 0.178125 61.8063C-0.06675 62.1756 -0.05525 62.6583 0.20675 63.0156C0.46875 63.3728 0.92575 63.5288 1.3515 63.4063C1.89088 63.7917 2.53713 63.9987 3.2 63.9983H60.8C61.4652 63.9969 62.1132 63.7869 62.6527 63.3978C62.7437 63.4258 62.8381 63.4412 62.9333 63.4437C63.3229 63.4459 63.6821 63.2337 63.8681 62.8913C64.0541 62.5489 64.0368 62.1321 63.8229 61.8064C63.9363 61.4823 63.996 61.1418 64 60.7984V24.5317C64 24.5093 63.9883 24.4901 63.9873 24.4688C63.9806 24.3948 63.966 24.3218 63.9435 24.2511ZM31.36 2.35455C31.7325 2.05855 32.26 2.05855 32.6325 2.35455L35.0933 4.26492H28.9066L31.36 2.35455ZM31.36 40.1967C31.7327 39.9024 32.2588 39.9024 32.6315 40.1967L60.5355 61.8649H3.46462L31.36 40.1967Z" fill="#0385C4"/>
<path d="M21.3334 13.8643H42.6668C43.2559 13.8643 43.7334 13.3866 43.7334 12.7976C43.7334 12.2085 43.2559 11.731 42.6668 11.731H21.3334C20.7443 11.731 20.2668 12.2086 20.2668 12.7976C20.2668 13.3868 20.7443 13.8643 21.3334 13.8643Z" fill="#428DFF"/>
<path d="M21.3334 20.2643H42.6668C43.2559 20.2643 43.7334 19.7866 43.7334 19.1976C43.7334 18.6085 43.2559 18.131 42.6668 18.131H21.3334C20.7443 18.131 20.2668 18.6086 20.2668 19.1976C20.2668 19.7868 20.7443 20.2643 21.3334 20.2643Z" fill="#428DFF"/>
<path d="M42.6668 24.531H33.0667C32.4776 24.531 32.0001 25.0086 32.0001 25.5976C32.0001 26.1868 32.4776 26.6643 33.0667 26.6643H42.6668C43.2559 26.6643 43.7334 26.1866 43.7334 25.5976C43.7334 25.0085 43.2559 24.531 42.6668 24.531Z" fill="#428DFF"/>
<circle cx="55.8546" cy="9.30909" r="8.14545" fill="#FF4141"/>
</g>
<defs>
<clipPath id="clip0">
<rect width="64" height="64" fill="white"/>
</clipPath>
</defs>
</svg>
