<svg width="27" height="22" viewBox="0 0 27 22" fill="none" xmlns="http://www.w3.org/2000/svg">
<path d="M21.3103 14.8656C21.3078 15.2413 21.0026 15.5444 20.627 15.5444H6.16932C5.79251 15.5461 5.48543 15.2424 5.48294 14.8656V0.678824C5.48543 0.303173 5.79066 6.61349e-06 6.16626 6.61349e-06H20.624C21.0008 -0.00163355 21.3078 0.302009 21.3103 0.678824V14.8656Z" fill="#0C9D58"/>
<path opacity="0.2" d="M21.3104 3.64647L15.891 2.94946L21.3104 4.40433V3.64647ZM13.6584 0.739687L5.45105 4.40433L14.5214 1.10338V1.09428C14.38 0.759105 13.9947 0.60075 13.6584 0.739687Z" fill="#004D40"/>
<path opacity="0.2" d="M20.627 5.28783e-05H6.16932C5.79251 -0.00164016 5.48543 0.301995 5.48294 0.678802V0.830963C5.48543 0.455374 5.79066 0.152215 6.16626 0.152215H20.624C21.0008 0.150522 21.3078 0.454157 21.3103 0.830963V0.678802C21.3078 0.303159 21.0026 0 20.627 0V5.28783e-05Z" fill="white"/>
<path d="M8.99239 14.4304C8.8852 14.7782 9.07895 15.1474 9.42613 15.2567L22.8185 18.859C23.1738 18.9375 23.5259 18.7146 23.6068 18.3598L26.7617 6.58365C26.8692 6.2371 26.6779 5.86859 26.3325 5.75727L12.9401 2.1551C12.5848 2.07653 12.2327 2.29948 12.1518 2.65424L8.99239 14.4304Z" fill="#EA4335"/>
<path opacity="0.2" d="M23.7455 10.787L24.45 15.0665L23.7455 17.6963V10.787ZM15.9535 3.12439L16.5851 3.29486L16.9776 5.93532L15.9535 3.12439Z" fill="#3E2723"/>
<path opacity="0.2" d="M26.3326 5.75727L12.9402 2.1551C12.5849 2.07653 12.2328 2.29948 12.1519 2.65424L8.99251 14.4304C8.99251 14.4501 8.99251 14.4699 8.98187 14.4897L12.1138 2.8018C12.1948 2.44704 12.5469 2.22409 12.9022 2.30266L26.2946 5.90488C26.4496 5.9542 26.5808 6.05939 26.6626 6.20001C26.7445 6.34063 26.7711 6.50664 26.7374 6.66581L26.7618 6.57603C26.8645 6.23191 26.6741 5.86864 26.3327 5.75727H26.3326Z" fill="white"/>
<path d="M19.5405 12.9816C19.6779 13.3186 19.5175 13.7034 19.1813 13.8429L5.04773 18.9869C4.70075 19.0965 4.33029 18.9056 4.21833 18.5593L0.0484435 7.10111C-0.0878491 6.76408 0.0732047 6.38023 0.409122 6.24124L14.5427 1.09741C14.8902 0.985617 15.2626 1.17625 15.3751 1.52354L19.5405 12.9816V12.9816Z" fill="#FFC107"/>
<path opacity="0.2" d="M0.101699 7.24571C-0.0346992 6.9091 0.125508 6.52541 0.460896 6.38584L14.5944 1.24196C14.9366 1.13435 15.3021 1.31942 15.4178 1.65888L15.3752 1.52343C15.2633 1.1772 14.8928 0.986148 14.5458 1.09583L0.409099 6.24124C0.0729699 6.38081 -0.0874491 6.76556 0.0499546 7.10259L4.2199 18.5593V18.5699L0.101699 7.24571Z" fill="white"/>
<path d="M23.0605 5.9353H3.73282C3.35459 5.9353 3.04797 6.24192 3.04797 6.62015V21.23C3.04797 21.6083 3.35459 21.9149 3.73282 21.9149H23.0605C23.4388 21.9149 23.7454 21.6083 23.7454 21.23V6.62015C23.7454 6.24192 23.4388 5.9353 23.0605 5.9353Z" fill="#4285F4"/>
<path d="M14.2718 10.1965H20.0549C20.1356 10.1965 20.213 10.2286 20.2701 10.2857C20.3272 10.3428 20.3593 10.4202 20.3593 10.5009V11.414C20.3593 11.4947 20.3272 11.5722 20.2701 11.6292C20.213 11.6863 20.1356 11.7184 20.0549 11.7184H14.2718V10.1965H14.2718ZM14.2718 15.9796H20.0549C20.1356 15.9796 20.213 16.0117 20.2701 16.0688C20.3272 16.1258 20.3593 16.2033 20.3593 16.284V17.1971C20.3593 17.2779 20.3272 17.3553 20.2701 17.4123C20.213 17.4694 20.1356 17.5015 20.0549 17.5015H14.2718V15.9796H14.2718ZM14.2718 13.0881H20.9679C21.0487 13.0881 21.1261 13.1202 21.1832 13.1772C21.2402 13.2343 21.2723 13.3117 21.2723 13.3924V14.3056C21.2723 14.3863 21.2403 14.4637 21.1832 14.5208C21.1261 14.5779 21.0487 14.61 20.9679 14.61H14.2718V13.0881Z" fill="white"/>
<path opacity="0.2" d="M23.0606 21.7628H3.73282C3.35495 21.7619 3.04882 21.4558 3.04797 21.0779V21.2301C3.04882 21.608 3.35495 21.9141 3.73282 21.9149H23.0606C23.4384 21.9141 23.7446 21.608 23.7454 21.2301V21.0779C23.7446 21.4558 23.4384 21.7619 23.0606 21.7628Z" fill="#1A237E"/>
<path opacity="0.2" d="M3.73282 6.08747H23.0606C23.4384 6.08832 23.7446 6.39446 23.7454 6.77234V6.62012C23.7446 6.24223 23.4384 5.9361 23.0606 5.9353H3.73282C3.35495 5.9361 3.04882 6.24223 3.04797 6.62012V6.77234C3.04882 6.39446 3.35495 6.08832 3.73282 6.08747Z" fill="white"/>
<path d="M9.09748 13.2403V14.61H11.0667C10.9039 15.447 10.1689 16.0527 9.09748 16.0527C7.87873 16.0527 6.89077 15.0648 6.89077 13.846C6.89077 12.6273 7.87873 11.6393 9.09748 11.6393C9.62113 11.6293 10.1274 11.8275 10.5052 12.1902L11.5477 11.1477C10.8855 10.5244 10.0068 10.1833 9.09748 10.1965C8.61666 10.1947 8.14021 10.2878 7.69547 10.4706C7.25073 10.6533 6.84644 10.9221 6.5058 11.2614C6.16516 11.6007 5.89488 12.004 5.71045 12.4481C5.52603 12.8921 5.43109 13.3682 5.43109 13.849C5.43109 14.3299 5.52603 14.806 5.71045 15.25C5.89488 15.6941 6.16516 16.0973 6.5058 16.4367C6.84644 16.776 7.25073 17.0448 7.69547 17.2275C8.14021 17.4102 8.61666 17.5034 9.09748 17.5015C11.2068 17.5015 12.5977 16.0192 12.5977 13.9328C12.597 13.7008 12.5777 13.4692 12.5399 13.2403H9.09748Z" fill="white"/>
<path opacity="0.2" d="M9.13544 14.61V14.7621H11.0682C11.0824 14.7124 11.0946 14.6617 11.1047 14.61H9.13549H9.13544Z" fill="#1A237E"/>
<path opacity="0.2" d="M9.13538 17.5015C7.1476 17.5019 5.52437 15.9125 5.48294 13.9251V14.0012C5.48294 16.0184 7.11819 17.6537 9.13543 17.6537C11.2447 17.6537 12.6357 16.1714 12.6357 14.0849V14.0362C12.5854 16.0679 11.2097 17.5015 9.13543 17.5015H9.13538ZM10.537 12.1902C10.1602 11.8301 9.65656 11.6332 9.13543 11.6423C7.93139 11.6615 6.96634 12.6448 6.96978 13.849V13.9251C7.00544 12.7517 7.95705 11.8135 9.13083 11.7945C9.65197 11.7853 10.1557 11.9822 10.5325 12.3423L11.6511 11.2238C11.6251 11.1995 11.5963 11.1781 11.5689 11.1538L10.5325 12.1902H10.537ZM20.3592 11.5662V11.414C20.3592 11.4947 20.3271 11.5722 20.27 11.6292C20.213 11.6863 20.1355 11.7184 20.0548 11.7184H14.2717V11.8706H20.0548C20.1355 11.8706 20.2129 11.8385 20.27 11.7814C20.3271 11.7244 20.3592 11.647 20.3592 11.5662ZM20.0548 17.5015H14.2717V17.6537H20.0548C20.1355 17.6537 20.213 17.6216 20.27 17.5645C20.3271 17.5075 20.3592 17.43 20.3592 17.3493V17.1971C20.3592 17.2779 20.3271 17.3553 20.27 17.4123C20.2129 17.4694 20.1355 17.5015 20.0548 17.5015ZM20.9679 14.61H14.2717V14.7621H20.968C21.0487 14.7621 21.1261 14.7301 21.1832 14.673C21.2403 14.6159 21.2723 14.5385 21.2723 14.4577V14.3056C21.2723 14.3863 21.2403 14.4637 21.1832 14.5208C21.1261 14.5779 21.0487 14.61 20.968 14.61H20.9679Z" fill="#1A237E"/>
<path d="M26.3327 5.75726L21.3106 4.41349V0.678824C21.3081 0.303173 21.0029 6.6135e-06 20.6273 6.6135e-06H6.1696C5.79278 -0.00163355 5.4857 0.302009 5.48322 0.678824V4.39216L0.409281 6.23973C0.0731529 6.37925 -0.0872659 6.76406 0.0501377 7.10108L3.0482 15.3404V21.2301C3.04905 21.6079 3.35518 21.9141 3.73305 21.9149H23.0608C23.4386 21.9141 23.7448 21.6079 23.7456 21.2301V17.8485L26.7635 6.58671C26.8729 6.23878 26.6803 5.86789 26.3328 5.75726H26.3327Z" fill="url(#paint0_radial)"/>
<defs>
<radialGradient id="paint0_radial" cx="0" cy="0" r="1" gradientUnits="userSpaceOnUse" gradientTransform="translate(4.91702 1.77598) scale(21.3057)">
<stop stop-color="white" stop-opacity="0.1"/>
<stop offset="1" stop-color="white" stop-opacity="0"/>
</radialGradient>
</defs>
</svg>
