<svg width="76" height="23" viewBox="0 0 76 23" fill="none" xmlns="http://www.w3.org/2000/svg">
<path d="M35.5356 6.72045L36.0924 7.57931C37.473 6.69843 39.0986 6.41214 40.7019 6.74247C42.3052 7.0728 43.6859 8.01975 44.5766 9.38511C45.4674 10.7505 45.7568 12.3581 45.4228 13.9437C45.0888 15.5293 44.1312 16.8946 42.7506 17.7755L43.3073 18.6344C44.9106 17.5993 46.0241 16.0137 46.4249 14.1639C46.8257 12.314 46.4694 10.4201 45.4451 8.83456C44.3985 7.24898 42.7951 6.14788 40.9246 5.75148C39.0541 5.35508 37.139 5.68541 35.5356 6.72045Z" fill="#211915"/>
<path d="M34.1328 4.58441L34.6895 5.44326C36.6491 4.18801 38.9651 3.76959 41.2364 4.25408C43.5078 4.73856 45.4674 6.05988 46.7145 7.99782C49.3199 11.9838 48.1619 17.3352 44.1313 19.9117L44.7103 20.7486C49.2085 17.8637 50.5224 11.8957 47.6052 7.42525C46.2023 5.26709 44.02 3.76959 41.4591 3.24106C38.9205 2.71253 36.3151 3.175 34.1328 4.58441Z" fill="#211915"/>
<path d="M32.8638 2.62435L33.4205 3.48321C38.5422 0.201928 45.4009 1.65538 48.7189 6.72045C52.0369 11.7855 50.5672 18.5683 45.4454 21.8496L46.0021 22.7084C51.5915 19.1188 53.2171 11.6974 49.5873 6.1699C45.9576 0.620346 38.4531 -0.965239 32.8638 2.62435Z" fill="#211915"/>
<path d="M43.3968 12.6443C43.3968 14.8685 41.5708 16.6743 39.3217 16.6743C37.0726 16.6743 35.2466 14.8685 35.2466 12.6443C35.2466 10.4201 37.0726 8.83447 39.3217 8.83447C41.5708 8.83447 43.3968 10.4201 43.3968 12.6443Z" fill="#D17900"/>
<path d="M8.16798 15.7933C7.27724 16.3438 6.14156 16.6962 4.69411 16.6962C2.11097 16.6962 0.262695 15.2648 0.262695 12.6882C0.262695 9.75926 2.55634 8.68018 4.71638 8.68018C6.27517 8.68018 7.32178 9.25275 8.14571 10.2437L7.34405 10.4419C6.69827 9.58308 6.00795 9.16466 4.78318 9.16466C3.17986 9.16466 1.10889 10.1116 1.10889 12.7102C1.10889 15.0005 2.71222 16.2558 4.80545 16.2558C5.76299 16.2558 6.7428 16.0135 7.41085 15.6391V13.503H4.9836V13.0185H8.16798V15.7933Z" fill="#211915" stroke="black" stroke-width="0.25"/>
<path d="M17.3426 16.5422H16.2959L13.312 13.261H11.2856V16.5422H10.4839V8.8125H13.1338C15.4275 8.8125 16.8081 9.42912 16.8081 10.9927C16.8081 12.358 15.6502 13.0628 14.1582 13.1949L17.3426 16.5422ZM13.4901 12.7765C15.0712 12.7765 15.9842 12.0718 15.9842 11.0147C15.9842 9.97967 15.3384 9.29698 13.0448 9.29698H11.2633V12.7765H13.4901Z" fill="#211915" stroke="black" stroke-width="0.25"/>
<path d="M25.2924 13.6133C25.2924 15.9256 24.3126 16.6964 22.019 16.6964C19.7921 16.6964 18.79 15.9476 18.79 13.6133V8.8125H19.5694V13.6573C19.5694 15.3971 20.0816 16.2339 22.019 16.2339C24.0008 16.2339 24.4908 15.4191 24.4908 13.6573V8.8125H25.2701V13.6133H25.2924Z" fill="#211915" stroke="black" stroke-width="0.25"/>
<path d="M27.6973 16.5422V8.8125H30.1468C32.6854 8.8125 33.6429 9.64934 33.6429 11.0587C33.6429 12.6664 32.485 13.349 29.9686 13.349H28.4989V16.5422H27.6973ZM29.9464 12.8646C32.0173 12.8646 32.8413 12.292 32.8413 11.0587C32.8413 9.95765 32.0842 9.29698 30.1468 9.29698H28.4989V12.8646H29.9464Z" fill="#211915" stroke="black" stroke-width="0.25"/>
<path d="M54.7537 13.261V16.5864H53.4844V8.76855H56.0898C56.936 8.76855 57.5595 8.83462 57.9603 8.96675C58.3612 9.09889 58.6729 9.31911 58.8956 9.60539C59.1183 9.89168 59.2296 10.2 59.2296 10.5083C59.2296 10.8166 59.1628 11.1249 59.0069 11.4332C58.8511 11.7415 58.6506 12.0058 58.4057 12.248C58.1385 12.4903 57.7822 12.7105 57.2923 12.9307L60.0981 16.5864H58.5838L56.023 13.261H54.7537ZM54.7537 12.4683H56.5351C56.936 12.2921 57.2255 12.1159 57.4259 11.9397C57.6263 11.7636 57.7599 11.5654 57.8713 11.3672C57.9603 11.169 58.0271 10.9487 58.0271 10.7505C58.0271 10.3762 57.8713 10.0899 57.5372 9.86966C57.2032 9.64944 56.602 9.53933 55.7335 9.53933H54.7759V12.4683H54.7537Z" fill="#211915" stroke="black" stroke-width="0.25"/>
<path d="M62.6365 13.7455V16.5864H61.3672V8.76855H63.7722C64.752 8.76855 65.4868 8.85664 65.9322 9.03282C66.3776 9.209 66.7339 9.47326 66.9788 9.82561C67.2238 10.178 67.3351 10.5523 67.3351 10.9928C67.3351 11.4993 67.1792 11.9617 66.8452 12.4022C66.5112 12.8426 66.0658 13.173 65.4868 13.4152C64.9079 13.6574 64.1285 13.7676 63.1264 13.7676H62.6365V13.7455ZM62.6365 12.9527H63.1709C63.9503 12.9527 64.5293 12.8647 64.9079 12.7105C65.2864 12.5563 65.5759 12.3141 65.7763 12.0058C65.9768 11.6975 66.0881 11.3672 66.0881 11.0148C66.0881 10.5744 65.9099 10.2 65.5537 9.93572C65.1974 9.67146 64.4848 9.53933 63.3936 9.53933H62.6365V12.9527Z" fill="#211915" stroke="black" stroke-width="0.25"/>
<path d="M70.3191 13.7455V16.5864H69.0498V8.76855H71.4548C72.4569 8.76855 73.1695 8.85664 73.6148 9.03282C74.0602 9.209 74.4165 9.47326 74.6614 9.82561C74.9064 10.178 75.0177 10.5523 75.0177 10.9928C75.0177 11.4993 74.8619 11.9617 74.5278 12.4022C74.1938 12.8426 73.7484 13.173 73.1695 13.4152C72.5905 13.6574 71.8111 13.7676 70.809 13.7676H70.3191V13.7455ZM70.3191 12.9527H70.8535C71.6329 12.9527 72.2119 12.8647 72.5905 12.7105C72.9691 12.5563 73.2585 12.3141 73.459 12.0058C73.6594 11.6975 73.7707 11.3672 73.7707 11.0148C73.7707 10.5744 73.5926 10.2 73.2363 9.93572C72.88 9.67146 72.1674 9.53933 71.0985 9.53933H70.3191V12.9527Z" fill="#211915" stroke="black" stroke-width="0.25"/>
<path d="M34.8901 12.6884C34.8901 15.0888 36.872 17.0268 39.277 17.0268C41.7043 17.0268 43.6639 15.0668 43.6639 12.6884C43.6639 10.288 41.682 8.3501 39.277 8.3501C36.872 8.3501 34.8901 10.288 34.8901 12.6884ZM35.8922 12.6884C35.8922 10.8386 37.4287 9.31907 39.2993 9.31907C41.1698 9.31907 42.7063 10.8386 42.7063 12.6884C42.7063 14.5383 41.1698 16.0578 39.2993 16.0578C37.4065 16.0578 35.8922 14.5603 35.8922 12.6884Z" fill="#211915"/>
</svg>
