<?xml version="1.0" encoding="utf-8"?>
<svg width="115" height="33" viewBox="0 0 115 33" fill="none" xmlns="http://www.w3.org/2000/svg">
<path d="M10.7275 1.30176H15.2551L18.7619 15.0461H18.8225V1.30176H22.0363V24.2527H18.3273L14.0019 7.49681H13.9413V24.2527H10.7275V1.30176Z" fill="#CCCCCC"/>
<path d="M24.7346 1.30176H28.3425V24.2527H24.7346V1.30176Z" fill="#CCCCCC"/>
<path d="M32.2938 23.0905C31.3055 21.894 30.8136 20.364 30.9194 18.8157V1.30176H34.5273V19.0683C34.4723 19.6765 34.6411 20.2838 35.0023 20.7762C35.3743 21.1143 35.8589 21.3016 36.3615 21.3016C36.8642 21.3016 37.3488 21.1143 37.7208 20.7762C38.0819 20.2838 38.2508 19.6765 38.1958 19.0683V1.30176H41.6723V18.8055C41.7781 20.3539 41.2862 21.8839 40.2979 23.0804C39.1913 24.0526 37.7688 24.5887 36.2959 24.5887C34.8229 24.5887 33.4004 24.0526 32.2938 23.0804V23.0905Z" fill="#CCCCCC"/>
<path d="M44.9265 23.0904C43.9589 21.8841 43.4793 20.3585 43.5823 18.8155V17.5017H46.9881V19.0783C46.9881 20.5673 47.6113 21.3118 48.8577 21.3118C49.116 21.3291 49.375 21.2891 49.6161 21.1948C49.8571 21.1004 50.0744 20.954 50.2524 20.766C50.6153 20.2553 50.7838 19.6316 50.7274 19.0076C50.7442 18.1179 50.517 17.2406 50.0705 16.4709C49.3971 15.4764 48.5796 14.5875 47.645 13.8332C46.42 12.8255 45.3685 11.6238 44.5323 10.2759C43.9311 9.17681 43.6248 7.94082 43.643 6.68821C43.5446 5.1593 44.0366 3.65091 45.0174 2.47396C45.5441 1.94875 46.1779 1.54326 46.8755 1.28515C47.5731 1.02704 48.3181 0.922358 49.0599 0.978254C49.783 0.926634 50.5086 1.03376 51.186 1.29214C51.8633 1.55051 52.476 1.95387 52.981 2.47396C53.9361 3.68602 54.4078 5.20916 54.3049 6.74884V7.69882H50.8992V6.51641C50.9509 5.90836 50.7902 5.3012 50.4444 4.79836C50.2759 4.61203 50.0675 4.46618 49.8348 4.37168C49.602 4.27718 49.351 4.23648 49.1003 4.25263C47.901 4.25263 47.3014 4.98365 47.3014 6.44567C47.3012 7.26912 47.5362 8.07551 47.9785 8.77007C48.6666 9.75617 49.4899 10.6407 50.4242 11.3977C51.6573 12.3991 52.7041 13.6102 53.5167 14.9752C54.106 16.1426 54.3976 17.4375 54.3656 18.7448C54.4695 20.3117 53.9706 21.8591 52.9709 23.0702C52.4424 23.5935 51.8086 23.9983 51.1117 24.2579C50.4147 24.5176 49.6705 24.626 48.9285 24.576C48.1934 24.6354 47.4542 24.5332 46.7629 24.2766C46.0715 24.02 45.4447 23.6151 44.9265 23.0904Z" fill="#CCCCCC"/>
<path d="M57.5592 23.0904C56.5709 21.8938 56.079 20.3638 56.1848 18.8155V6.7387C56.079 5.19036 56.5709 3.66038 57.5592 2.46381C58.6658 1.49169 60.0883 0.955566 61.5612 0.955566C63.0341 0.955566 64.4567 1.49169 65.5632 2.46381C66.5516 3.66038 67.0435 5.19036 66.9377 6.7387V8.70939H63.5319V6.51637C63.5319 5.00719 62.9087 4.25259 61.6623 4.25259C60.4159 4.25259 59.7927 5.00719 59.7927 6.51637V19.0682C59.7927 20.5571 60.4159 21.3016 61.6623 21.3016C62.9087 21.3016 63.5319 20.5571 63.5319 19.0682V14.581H61.733V11.2966H66.9478V18.8054C67.0536 20.3537 66.5617 21.8837 65.5733 23.0803C64.4668 24.0524 63.0442 24.5885 61.5713 24.5885C60.0984 24.5885 58.6759 24.0524 57.5693 23.0803L57.5592 23.0904Z" fill="white"/>
<path d="M69.2318 1.30176H79.065V4.55593H72.8296V10.6196H77.7715V13.894H72.8195V20.9683H79.0549V24.2426H69.2217L69.2318 1.30176Z" fill="white"/>
<path d="M81.1367 1.30176H90.97V4.55593H84.7446V10.6196H89.6966V13.894H84.7446V20.9683H90.9801V24.2426H81.1468L81.1367 1.30176Z" fill="white"/>
<path d="M93.0317 1.30176H96.6396V10.9733L101.228 1.30176H104.836L100.541 9.73026L104.906 24.2527H101.137L98.105 14.0254L96.6598 16.946V24.2628H93.0317V1.30176Z" fill="white"/>
<path d="M0.499977 32.3374L114.153 32.3374V28.8407L0.499977 28.8407V32.3374Z" fill="url(#paint0_linear)"/>
<defs>
<linearGradient id="paint0_linear" x1="114.153" y1="30.589" x2="0.499969" y2="30.589" gradientUnits="userSpaceOnUse">
<stop stop-color="#D40041"/>
<stop offset="0.07" stop-color="#CB0446"/>
<stop offset="0.2" stop-color="#B10F53"/>
<stop offset="0.35" stop-color="#882069"/>
<stop offset="0.5" stop-color="#593482"/>
<stop offset="0.87" stop-color="#0075BE"/>
<stop offset="0.99" stop-color="#005B97"/>
</linearGradient>
</defs>
</svg>
