<svg width="181" height="72" viewBox="0 0 181 72" fill="none" xmlns="http://www.w3.org/2000/svg">
<path d="M52.9281 17.0866C53.3372 12.8092 53.939 9.43344 54.8536 5.50281C54.7573 5.52593 54.6851 5.54905 54.6129 5.54905C54.3241 5.61841 54.0593 5.64153 53.8427 5.64153C53.3132 5.64153 52.9762 5.41032 53.0003 4.71668C53.0243 4.16177 53.0966 3.62997 53.2169 3.05194C53.265 2.7976 53.3372 2.56639 53.4094 2.28893C53.6983 1.3872 54.0834 1.17911 55.0461 0.994135C58.0307 0.485465 60.7746 0.208008 63.9517 0.208008C69.5598 0.208008 73.3387 2.24269 72.0871 7.6531C70.643 13.9884 62.6279 18.8207 55.335 18.8207C54.9499 18.8207 54.5407 18.7976 54.1315 18.7745C53.0725 18.7514 52.8077 18.3814 52.9281 17.0866ZM60.0044 4.69356C59.3064 8.18489 58.825 11.0288 58.3677 14.2196C61.2801 13.7803 66.2383 11.6069 67.1529 7.58373C67.6825 5.31784 65.5162 4.57795 62.4354 4.57795C61.6652 4.57795 60.8468 4.62419 60.0044 4.69356Z" fill="#95BFA1"/>
<path d="M76.2751 13.9421C76.8287 14.7514 77.96 15.2369 79.2356 15.2369C80.1743 15.2369 81.7148 14.9595 82.8701 14.4739C83.1348 14.3814 83.3515 14.2889 83.4959 14.2889C83.7606 14.2889 83.8569 14.497 83.9291 14.867C83.9773 15.2369 83.9773 15.63 83.9773 15.9999C83.9773 16.208 83.9532 16.3699 83.9051 16.5086C83.8329 16.8554 83.6644 17.1098 83.2552 17.3872C81.9314 18.3814 79.6448 19.052 77.1416 19.052C73.5312 19.052 70.7874 16.4624 71.702 12.5317C72.6166 8.55484 76.6843 5.78027 80.4632 5.78027C85.5658 5.78027 86.3361 9.78027 85.9028 11.6762C85.8065 12.0924 85.5899 12.4624 84.9882 12.6704C83.0145 13.3178 79.2838 13.7803 76.2751 13.9421ZM76.3714 11.3063C78.0322 11.26 80.054 11.1213 81.6666 10.7976C81.4741 9.8034 80.6076 9.38721 79.7411 9.38721C78.4414 9.38721 77.0213 10.1965 76.3714 11.3063Z" fill="#EDCB6C"/>
<path d="M89.3688 19.075C87.8283 19.075 86.673 18.89 85.6621 18.4738C85.2048 18.2888 85.0122 18.0576 85.1085 17.6183C85.1326 17.4565 85.2048 17.2715 85.3251 17.0634C85.5658 16.5778 86.0472 15.9536 86.3361 15.5143C86.6249 15.1443 86.7934 14.9593 87.0341 14.9593C87.2025 14.9593 87.3951 15.0287 87.708 15.1674C88.3338 15.468 89.1281 15.6067 89.6817 15.6067C90.5 15.6067 91.1258 15.4449 91.2462 14.9825C91.5109 13.8264 85.7825 13.6877 86.6971 9.78016C87.2748 7.28305 90.7407 5.66455 93.8938 5.66455C95.2176 5.66455 96.6376 5.89576 97.6726 6.26571C98.2021 6.45068 98.4669 6.75126 98.3225 7.46802C98.154 8.18478 97.7208 9.24837 97.3838 9.89576C97.095 10.4044 96.8302 10.7281 96.0841 10.7281C95.5064 10.7281 95.0009 10.6819 94.4714 10.5663C93.7734 10.4276 93.6771 10.2657 93.8697 9.47958L93.9178 9.29461C93.6049 9.22524 93.3161 9.15588 93.0513 9.15588C92.0886 9.15588 91.3184 9.36397 91.1739 9.96513C90.9092 11.1212 97.3116 11.2137 96.3729 15.2368C95.8193 17.5721 92.8588 19.075 89.3688 19.075Z" fill="#EDCB6C"/>
<path d="M106.169 17.6881C104.749 18.5667 103.233 19.0985 101.644 19.0985C98.1059 19.0985 96.4692 16.8095 97.1912 13.7112C98.2021 9.29501 102.92 5.84992 106.867 5.84992C107.661 5.84992 108.48 6.01177 109.202 6.31235C109.394 5.66495 109.659 5.47998 110.165 5.47998C110.766 5.47998 111.922 5.64183 112.764 5.87304C113.63 6.10426 113.967 6.33547 113.679 7.5609C112.981 10.6129 111.97 14.2892 110.838 17.4337C110.477 18.4511 110.092 18.7979 109.081 18.9135C108.744 18.9597 108.311 18.9597 107.902 18.9597C107.565 18.9597 107.228 18.9597 106.987 18.9366C106.001 18.7979 106.001 18.4511 106.169 17.6881ZM108.359 9.91929C107.878 9.71119 107.348 9.54934 106.626 9.54934C104.388 9.54934 102.655 11.6303 102.342 12.9944C102.053 14.2892 102.703 15.1216 104.268 15.1216C105.182 15.1216 106.193 14.7517 107.228 13.9886C107.613 12.6707 108.022 11.2603 108.359 9.91929Z" fill="#EDCB6C"/>
<path d="M115.46 6.0579C116.374 5.84981 118.059 5.75732 118.95 5.75732C119.503 5.75732 119.576 6.01166 119.479 6.42784C119.431 6.63594 119.335 6.98276 119.239 7.21397C120.466 6.35848 121.886 5.78045 123.354 5.78045C124.341 5.78045 124.654 6.7053 124.654 7.56079C124.654 8.37004 124.413 9.4105 124.269 10.1041C124.125 10.7747 123.643 11.3527 122.512 11.8845C121.982 12.1157 121.02 12.4625 120.586 12.4625C119.961 12.4625 119.744 11.8614 119.888 11.2602C119.961 10.8903 120.105 10.1504 120.105 9.71108C119.527 9.9423 119.118 10.1504 118.396 10.6128C117.53 14.3585 117.265 17.2949 117.145 17.8498C117 18.451 116.663 18.7515 115.46 18.8209C115.195 18.844 114.882 18.844 114.545 18.844C114.208 18.844 113.919 18.844 113.655 18.8209C112.523 18.7747 112.403 18.3585 112.475 17.5261C112.764 14.9134 113.221 12.162 113.823 9.45675C113.967 8.83247 114.112 8.20819 114.28 7.58391C114.545 6.77467 114.689 6.19663 115.46 6.0579Z" fill="#EDCB6C"/>
<path d="M126.604 6.0579C127.518 5.84981 129.203 5.75732 130.094 5.75732C130.647 5.75732 130.72 6.01166 130.623 6.42784C130.575 6.63594 130.479 6.98276 130.383 7.21397C131.61 6.35848 133.03 5.78045 134.498 5.78045C135.485 5.78045 135.798 6.7053 135.798 7.56079C135.798 8.37004 135.557 9.4105 135.413 10.1041C135.269 10.7747 134.787 11.3527 133.656 11.8845C133.126 12.1157 132.164 12.4625 131.73 12.4625C131.105 12.4625 130.888 11.8614 131.032 11.2602C131.105 10.8903 131.249 10.1504 131.249 9.71108C130.671 9.9423 130.262 10.1504 129.54 10.6128C128.674 14.3585 128.409 17.2949 128.289 17.8498C128.144 18.451 127.807 18.7515 126.604 18.8209C126.339 18.844 126.026 18.844 125.689 18.844C125.352 18.844 125.063 18.844 124.799 18.8209C123.667 18.7747 123.547 18.3585 123.619 17.5261C123.908 14.9134 124.365 12.162 124.967 9.45675C125.111 8.83247 125.256 8.20819 125.424 7.58391C125.689 6.77467 125.858 6.19663 126.604 6.0579Z" fill="#EDCB6C"/>
<path d="M147.183 6.84371C147.159 6.9362 147.135 7.07493 146.966 7.44487C149.686 8.09227 150.962 10.1963 150.312 13.0171C149.373 17.0171 145.065 19.1905 141.527 19.1905C136.713 19.1905 134.161 16.9246 135.124 12.7628C136.111 8.50845 140.756 5.73389 144.559 5.73389C145.161 5.73389 145.979 5.82637 146.605 6.01134C147.038 6.17319 147.303 6.31192 147.183 6.84371ZM143.765 9.57204C141.839 9.75701 140.131 11.0749 139.697 12.9246C139.336 14.4507 140.516 15.3293 142.128 15.3293C143.645 15.3293 145.522 14.4507 145.859 12.9246C146.076 11.9304 145.546 11.283 144.583 11.0056C143.789 10.7512 143.548 10.6125 143.765 9.57204Z" fill="#EDCB6C"/>
<path d="M155.005 0.462199C155.92 0.254107 157.172 0.161621 157.942 0.161621C158.495 0.161621 158.688 0.369714 158.519 1.17896C158.351 1.96509 158.182 2.82058 157.966 3.69919C156.859 8.4622 155.342 14.2888 154.38 17.3177C154.091 18.2425 153.946 18.7281 152.743 18.8206C152.526 18.8437 152.286 18.8437 152.069 18.8437C151.756 18.8437 151.491 18.8437 151.226 18.8206C150.095 18.7743 149.975 18.3582 150.095 17.5258C150.312 15.9998 150.769 13.6183 151.371 10.9593C152.045 8.02289 152.887 4.80902 153.85 2.01133C154.211 0.832141 154.428 0.600928 155.005 0.462199Z" fill="#EDCB6C"/>
<path d="M160.493 0.462199C161.408 0.254107 162.659 0.161621 163.43 0.161621C163.983 0.161621 164.176 0.369714 164.007 1.17896C163.839 1.96509 163.67 2.82058 163.454 3.69919C162.346 8.4622 160.83 14.2888 159.867 17.3177C159.578 18.2425 159.434 18.7281 158.231 18.8206C158.014 18.8437 157.773 18.8437 157.557 18.8437C157.244 18.8437 156.979 18.8437 156.714 18.8206C155.583 18.7743 155.463 18.3582 155.583 17.5258C155.8 15.9998 156.257 13.6183 156.859 10.9593C157.533 8.02289 158.375 4.80902 159.338 2.01133C159.699 0.832141 159.915 0.600928 160.493 0.462199Z" fill="#EDCB6C"/>
<path d="M173.996 6.84371C173.972 6.9362 173.948 7.07493 173.779 7.44487C176.499 8.09227 177.775 10.1963 177.125 13.0171C176.186 17.0171 171.878 19.1905 168.34 19.1905C163.526 19.1905 160.974 16.9246 161.937 12.7628C162.924 8.50845 167.569 5.73389 171.372 5.73389C171.974 5.73389 172.792 5.82637 173.418 6.01134C173.827 6.17319 174.116 6.31192 173.996 6.84371ZM170.578 9.57204C168.653 9.75701 166.944 11.0749 166.51 12.9246C166.149 14.4507 167.329 15.3293 168.941 15.3293C170.458 15.3293 172.335 14.4507 172.672 12.9246C172.889 11.9304 172.359 11.283 171.396 11.0056C170.602 10.7512 170.361 10.6125 170.578 9.57204Z" fill="#EDCB6C"/>
<path d="M68.0435 22.2196C67.6825 24.0693 67.2973 25.8034 66.9122 27.5144C66.142 30.9132 65.2755 34.1502 64.2406 37.6878C64.0239 38.682 63.5426 39.1444 62.7723 39.2138C62.2428 39.26 61.9781 39.26 61.7133 39.26C61.2078 39.26 60.6783 39.2369 60.0285 39.1675C59.3064 39.0982 59.1379 38.7514 59.2342 37.734C59.7637 34.3814 60.2932 31.3988 60.9912 28.3467C61.4245 26.497 61.9059 24.6011 62.4354 22.6126C62.7723 21.4103 63.0612 20.9941 64.0721 20.8323C64.9145 20.6704 65.7088 20.6011 66.5271 20.6011C66.7678 20.6011 67.0326 20.6011 67.2733 20.6242C68.1398 20.6936 68.2601 21.2022 68.0435 22.2196Z" fill="#95BFA1"/>
<path d="M69.247 26.451C70.1616 26.2429 71.8464 26.1504 72.737 26.1504C73.2906 26.1504 73.3628 26.4047 73.2665 26.8209C73.2184 27.029 73.1462 27.2602 73.0499 27.5146C74.6144 26.6128 76.2992 26.1735 77.8878 26.1735C79.4041 26.1735 82.0758 26.5666 81.3297 29.8729C80.8964 31.7458 79.9577 35.0059 78.8024 38.0579C78.5858 38.6591 78.2729 39.2602 77.3342 39.2602C76.7806 39.2602 75.7938 39.1677 75.0235 39.0059C74.4218 38.8672 74.2533 38.4972 74.3977 37.8729C74.5662 37.1099 75.192 35.7689 76.1548 31.4914C76.3473 30.6591 76.1067 30.1273 75.4086 30.1273C74.494 30.1273 73.3387 30.4741 72.1353 31.1446C71.6298 33.3643 71.2447 35.5839 70.9799 37.7342C70.9559 37.9423 70.9559 38.1273 70.9077 38.2891C70.7633 38.8903 70.4263 39.1909 69.2229 39.2602C68.9581 39.2833 68.6452 39.2833 68.3083 39.2833C67.9713 39.2833 67.6825 39.2833 67.4177 39.2602C66.2865 39.214 66.1661 38.7978 66.2383 37.9654C66.5271 35.3527 66.9845 32.6013 67.5862 29.8961C67.7306 29.2718 67.875 28.6475 68.0435 28.0232C68.3323 27.1677 68.5008 26.6128 69.247 26.451Z" fill="#EDCB6C"/>
<path d="M84.4587 25.8495C84.6271 25.0634 84.8438 24.3466 85.0363 23.6299C85.4214 22.3351 86.9618 20.4854 90.3556 20.4854C91.3424 20.4854 92.1849 20.6934 93.1717 21.364C93.4846 21.5721 93.5809 21.7339 93.5087 22.127C93.3883 22.705 92.9551 23.468 92.4977 24.2079C92.2811 24.5778 91.9682 24.7859 91.6313 24.7859C91.198 24.7859 90.7166 24.3235 89.7779 24.1385C89.4891 25.2021 89.2243 26.2426 88.9837 27.283C89.5854 27.3293 90.2352 27.4218 90.861 27.4911C91.7516 27.6299 91.7997 27.6992 91.6072 28.5778C91.4628 29.0634 91.3184 29.5721 91.1258 30.0576C90.8129 30.8206 90.4759 30.9131 89.6335 31.0287C89.2003 31.0749 88.2857 31.1212 88.1412 31.1212C87.5876 33.8726 87.0341 37.5027 86.8896 38.1732C86.7452 38.7975 86.4564 39.075 85.6621 39.1906C84.94 39.283 84.218 39.3524 83.52 39.3524C82.822 39.3524 82.5572 39.1212 82.6294 38.2888C82.8942 35.7686 83.1589 33.4796 83.544 30.9825L82.846 30.9131C81.9555 30.8206 81.811 30.6588 81.9314 29.8726C81.9795 29.5027 82.0277 29.2021 82.124 28.8091C82.3887 27.6067 82.5572 27.4911 84.1939 27.3524C84.242 26.8206 84.3624 26.3119 84.4587 25.8495Z" fill="#EDCB6C"/>
<path d="M98.9483 38.1041C97.5282 38.9827 96.0118 39.5145 94.4233 39.5145C90.8851 39.5145 89.2484 37.2255 89.9705 34.1272C90.9814 29.711 95.6989 26.2659 99.6463 26.2659C100.441 26.2659 101.259 26.4278 101.981 26.7284C102.174 26.081 102.438 25.896 102.944 25.896C103.545 25.896 104.701 26.0578 105.543 26.2891C106.41 26.5203 106.747 26.7515 106.458 27.9769C105.76 31.0289 104.749 34.7052 103.618 37.8498C103.257 38.8671 102.872 39.2139 101.861 39.3295C101.524 39.3758 101.09 39.3758 100.681 39.3758C100.344 39.3758 100.007 39.3758 99.7666 39.3526C98.7798 39.2139 98.7798 38.844 98.9483 38.1041ZM101.139 30.3122C100.657 30.1041 100.128 29.9422 99.4056 29.9422C97.1672 29.9422 95.4342 32.0232 95.1213 33.3873C94.8325 34.6821 95.4823 35.5145 97.0468 35.5145C97.9614 35.5145 98.9723 35.1446 100.007 34.3815C100.392 33.0636 100.802 31.6532 101.139 30.3122Z" fill="#EDCB6C"/>
<path d="M108.119 26.451C109.033 26.2429 110.718 26.1504 111.609 26.1504C112.162 26.1504 112.234 26.4047 112.138 26.8209C112.09 27.029 112.018 27.2602 111.922 27.5146C113.486 26.6128 115.171 26.1735 116.759 26.1735C118.276 26.1735 120.947 26.5666 120.201 29.8729C119.768 31.7458 118.829 35.0059 117.674 38.0579C117.457 38.6591 117.145 39.2602 116.206 39.2602C115.652 39.2602 114.665 39.1677 113.895 39.0059C113.293 38.8672 113.125 38.4972 113.269 37.8729C113.438 37.1099 114.064 35.7689 115.051 31.4914C115.243 30.6591 115.002 30.1273 114.304 30.1273C113.39 30.1273 112.234 30.4741 111.031 31.1446C110.526 33.3643 110.14 35.5839 109.876 37.7342C109.852 37.9423 109.852 38.1273 109.803 38.2891C109.659 38.8903 109.322 39.1909 108.119 39.2602C107.854 39.2833 107.541 39.2833 107.204 39.2833C106.867 39.2833 106.578 39.2833 106.337 39.2602C105.206 39.214 105.086 38.7978 105.158 37.9654C105.447 35.3527 105.904 32.6013 106.506 29.8961C106.65 29.2718 106.795 28.6475 106.963 28.0232C107.204 27.1677 107.348 26.6128 108.119 26.451Z" fill="#EDCB6C"/>
<path d="M123.042 27.3064L123.21 26.5896C123.354 25.9422 123.547 25.2948 123.74 24.5318C124.125 23.237 124.558 22.7515 127.928 22.7515C128.794 22.7515 128.963 23.1677 128.794 23.9075C128.722 24.2081 128.168 26.0116 127.831 27.2601C128.457 27.3064 129.083 27.3757 129.709 27.4682C130.431 27.5607 130.599 27.8844 130.455 28.5549C130.383 28.9018 130.166 29.5492 129.973 30.0347C129.685 30.7052 129.299 30.9364 128.481 31.0058C127.976 31.052 127.278 31.0983 126.989 31.0983C126.556 33.3873 125.882 37.4567 125.713 38.1734C125.569 38.7977 125.28 39.0752 124.486 39.1908C123.764 39.2833 123.042 39.3526 122.343 39.3526C121.645 39.3526 121.381 39.1214 121.453 38.289C121.645 35.8613 121.982 33.4798 122.368 30.9596L121.67 30.8902C120.923 30.8208 120.659 30.6359 120.755 29.8497C120.803 29.4798 120.875 29.0405 120.947 28.7862C121.236 27.5838 121.573 27.422 123.042 27.3064Z" fill="#EDCB6C"/>
<path d="M131.995 28.3006C132.549 28.185 133.319 28.1387 133.993 28.1387C134.282 28.1387 134.547 28.1387 134.787 28.1619C135.269 28.185 135.269 28.3468 135.1 29.0636C134.354 32.3006 133.704 34.9596 132.765 37.9885C132.477 38.9133 132.38 39.237 131.177 39.237C130.744 39.237 130.286 39.2139 129.853 39.1677C128.89 39.0752 128.794 38.7052 128.914 37.9653C129.083 36.8786 129.324 35.8151 129.564 34.7515C129.949 33.0405 130.407 31.3526 130.936 29.5954C131.129 28.8786 131.321 28.3931 131.995 28.3006ZM136.448 25.1098C136.183 26.2659 135.533 27.1214 133.488 27.1214C131.706 27.1214 131.201 26.6127 131.61 24.9018C131.947 23.4451 132.765 22.7515 134.498 22.7515C136.28 22.7515 136.905 23.1214 136.448 25.1098Z" fill="#EDCB6C"/>
<path d="M139.505 20.8787C140.419 20.6706 141.671 20.5781 142.441 20.5781C142.995 20.5781 143.187 20.7862 143.019 21.5955C142.85 22.3816 142.682 23.2371 142.465 24.1157C141.358 28.8787 139.842 34.7053 138.879 37.7342C138.59 38.659 138.446 39.1446 137.242 39.2371C137.026 39.2602 136.785 39.2602 136.568 39.2602C136.255 39.2602 135.991 39.2602 135.726 39.2371C134.595 39.1908 134.474 38.7747 134.595 37.9423C134.811 36.4163 135.269 34.0348 135.87 31.3758C136.544 28.4394 137.387 25.2255 138.349 22.4278C138.686 21.2486 138.903 20.9943 139.505 20.8787Z" fill="#EDCB6C"/>
<path d="M81.4259 42.3351C81.4019 42.7282 81.3296 43.0981 81.2574 43.468C81.1371 44.023 80.9686 44.5316 80.7279 45.0865C80.4872 45.5952 80.1743 45.8495 79.5485 45.8495C78.8265 45.8495 77.3342 45.6183 75.2402 45.5952C74.7347 47.2137 74.3015 48.8322 73.9164 50.4969C72.9536 54.705 72.5926 58.3582 72.4963 58.7744C72.3519 59.3756 72.063 59.6068 71.365 59.6993C70.5467 59.7917 69.608 59.8842 68.7415 59.8842C68.5249 59.8842 68.3082 59.8842 68.0916 59.8611C67.3936 59.7917 66.7919 59.468 66.8882 58.6588C67.2251 56.0923 67.6825 53.5027 68.2842 50.9131C68.6934 49.1559 69.1507 47.3524 69.7043 45.549C67.7787 45.5952 66.2624 45.7571 65.7088 45.7571C64.9867 45.7571 64.746 45.5258 64.9626 44.5547C65.1311 43.7686 65.444 42.8438 65.7329 42.2657C66.0457 41.6646 66.5031 41.4796 67.1289 41.4334C69.1747 41.2946 71.6057 41.2021 74.0608 41.2021C76.1307 41.2021 78.2488 41.2253 80.2225 41.3409C81.1852 41.3871 81.45 41.6877 81.4259 42.3351Z" fill="#95BFA1"/>
<path d="M79.019 54.7517C79.5726 55.5609 80.7039 56.0465 81.9795 56.0465C82.9182 56.0465 84.4586 55.769 85.614 55.2835C85.8787 55.191 86.0953 55.0985 86.2398 55.0985C86.5045 55.0985 86.6008 55.3066 86.673 55.6765C86.7211 56.0465 86.7211 56.4396 86.7211 56.8095C86.7211 57.0176 86.6971 57.1794 86.6489 57.3182C86.5767 57.665 86.4082 57.9193 85.9991 58.1968C84.6753 59.191 82.3887 59.8615 79.8855 59.8615C76.2751 59.8615 73.5312 57.2719 74.4459 53.3413C75.3605 49.3644 79.4282 46.5898 83.207 46.5898C88.3338 46.5898 89.0799 50.5898 88.6467 52.4858C88.5504 52.902 88.3338 53.2719 87.732 53.48C85.7343 54.1274 82.0036 54.5898 79.019 54.7517ZM79.0912 52.1159C80.752 52.0696 82.7738 51.9309 84.3864 51.6072C84.1939 50.613 83.3274 50.1968 82.4609 50.1968C81.1612 50.1968 79.7652 51.006 79.0912 52.1159Z" fill="#EDCB6C"/>
<path d="M106.674 46.5664C108.865 46.5664 110.718 47.5837 110.116 50.2658C109.683 52.1387 108.744 55.3988 107.589 58.4508C107.372 59.052 107.06 59.6531 106.121 59.6531C105.615 59.6531 104.58 59.5606 103.81 59.3988C103.209 59.26 103.04 58.8901 103.184 58.2658C103.281 57.8496 104.099 55.5606 104.941 51.8843C105.134 51.052 105.062 50.5202 104.484 50.5202C103.762 50.5202 102.872 50.8207 101.885 51.445C101.764 52.0693 101.62 52.7398 101.451 53.5028C101.114 54.9826 100.657 56.8785 100.224 58.3352C99.9832 59.2138 99.6222 59.63 98.7076 59.63H98.1058C97.5523 59.63 96.9505 59.63 96.4932 59.5838C95.8193 59.5144 95.6267 59.0288 95.7711 58.3121C96.2284 56.208 96.7339 54.2658 97.0227 52.0924C97.1431 51.2832 97.0468 50.7976 96.5173 50.7976C95.7471 50.7976 94.9046 51.1907 94.1585 51.6762C93.6771 53.8728 93.292 55.9999 93.0273 58.1271C93.0032 58.3352 93.0032 58.5202 92.955 58.682C92.8106 59.2832 92.4737 59.5837 91.2702 59.6531C91.0054 59.6762 90.6925 59.6762 90.3556 59.6762C90.0186 59.6762 89.7298 59.6762 89.465 59.6531C88.3338 59.6069 88.2134 59.1907 88.3097 58.3583C88.5985 55.7456 89.0318 53.0404 89.6576 50.3121C89.802 49.6878 89.9464 49.0404 90.1149 48.4161C90.3315 47.6069 90.4759 47.052 91.2461 46.8901C92.1608 46.682 93.8456 46.5895 94.7362 46.5895C95.2898 46.5895 95.362 46.8439 95.2657 47.26C95.2175 47.4681 95.1453 47.6762 95.0491 47.9306C96.084 47.26 97.48 46.7745 98.515 46.7745C100.2 46.7745 101.331 47.052 101.933 48.4624C103.497 47.1676 105.11 46.5664 106.674 46.5664Z" fill="#EDCB6C"/>
<path d="M112.716 47.1446C113.558 46.9828 114.69 46.9365 115.508 46.9365C116.23 46.9365 116.326 47.214 116.158 47.9539C117.457 47.029 119.142 46.5435 120.611 46.5435C123.932 46.5435 126.074 48.6475 125.063 53.0637C124.173 56.925 120.105 59.8845 116.615 59.8845C115.363 59.8845 114.304 59.7226 113.438 59.3989C113.197 60.555 113.125 60.7862 112.932 61.6648C112.74 62.5203 112.547 62.9596 111.464 63.2371C110.694 63.4221 109.491 63.4683 108.889 63.4683C108.383 63.4683 108.119 63.214 108.191 62.5897C108.48 59.7458 108.672 58.7284 109.418 55.5145C109.924 53.3643 110.477 51.0984 111.127 48.7862C111.368 47.7226 111.753 47.3296 112.716 47.1446ZM114.497 54.4741L114.256 55.5608C114.714 55.8614 115.195 56.0001 115.941 56.0001C117.77 56.0001 119.816 54.6822 120.177 53.0637C120.562 51.4221 119.672 50.7053 118.252 50.7053C117.289 50.7053 116.158 51.0059 115.123 51.792C114.906 52.7169 114.69 53.5955 114.497 54.4741Z" fill="#EDCB6C"/>
<path d="M127.807 46.867C128.722 46.6589 130.407 46.5664 131.297 46.5664C131.851 46.5664 131.923 46.8207 131.827 47.2369C131.779 47.445 131.682 47.7918 131.586 48.0231C132.814 47.1676 134.234 46.5895 135.702 46.5895C136.689 46.5895 137.002 47.5144 137.002 48.3699C137.002 49.1791 136.761 50.2196 136.617 50.9132C136.472 51.5837 135.991 52.1618 134.859 52.6936C134.33 52.9248 133.367 53.2716 132.934 53.2716C132.308 53.2716 132.092 52.6705 132.236 52.0693C132.308 51.6994 132.453 50.9595 132.453 50.5202C131.875 50.7514 131.466 50.9595 130.744 51.4219C129.877 55.1676 129.612 58.104 129.492 58.6589C129.348 59.26 129.011 59.5606 127.807 59.63C127.542 59.6531 127.23 59.6531 126.893 59.6531C126.556 59.6531 126.267 59.6531 126.026 59.63C124.895 59.5837 124.774 59.1676 124.847 58.3352C125.135 55.7225 125.593 52.971 126.195 50.2658C126.339 49.6416 126.483 49.0173 126.652 48.393C126.893 47.5837 127.037 47.0057 127.807 46.867Z" fill="#EDCB6C"/>
<path d="M144.68 58.4971C143.26 59.3758 141.743 59.9076 140.155 59.9076C136.616 59.9076 134.98 57.6185 135.702 54.5203C136.713 50.1041 141.43 46.659 145.378 46.659C146.172 46.659 146.99 46.8209 147.712 47.1214C147.905 46.474 148.17 46.2891 148.675 46.2891C149.277 46.2891 150.432 46.4509 151.275 46.6821C152.141 46.9133 152.478 47.1446 152.189 48.37C151.491 51.422 150.48 55.0983 149.349 58.2428C148.988 59.2602 148.603 59.607 147.592 59.7226C147.255 59.7688 146.822 59.7688 146.413 59.7688C146.076 59.7688 145.739 59.7688 145.498 59.7457C144.487 59.607 144.487 59.2602 144.68 58.4971ZM146.87 50.7284C146.389 50.5203 145.859 50.3584 145.137 50.3584C142.899 50.3584 141.166 52.4393 140.853 53.8035C140.564 55.0983 141.214 55.9307 142.778 55.9307C143.693 55.9307 144.704 55.5607 145.739 54.7977C146.124 53.4798 146.533 52.0694 146.87 50.7284Z" fill="#EDCB6C"/>
<path d="M153.85 46.867C154.765 46.6589 156.449 46.5664 157.34 46.5664C157.894 46.5664 157.966 46.8207 157.87 47.2369C157.821 47.445 157.749 47.6762 157.653 47.9306C159.217 47.0288 160.902 46.5895 162.491 46.5895C164.007 46.5895 166.679 46.9826 165.933 50.289C165.499 52.1618 164.561 55.4219 163.405 58.4739C163.189 59.0751 162.876 59.6762 161.937 59.6762C161.384 59.6762 160.397 59.5838 159.627 59.4219C159.025 59.2832 158.856 58.9132 159.001 58.289C159.169 57.526 159.795 56.1849 160.758 51.9075C160.95 51.0751 160.71 50.5433 160.012 50.5433C159.097 50.5433 157.942 50.8901 156.738 51.5606C156.233 53.7803 155.848 55.9999 155.583 58.1502C155.559 58.3583 155.559 58.5433 155.511 58.7051C155.366 59.3063 155.029 59.6069 153.826 59.6762C153.561 59.6994 153.248 59.6994 152.911 59.6994C152.574 59.6994 152.286 59.6994 152.045 59.6762C150.914 59.63 150.793 59.2138 150.865 58.3814C151.154 55.7687 151.612 53.0173 152.213 50.3121C152.358 49.6878 152.502 49.0635 152.671 48.4392C152.935 47.5837 153.08 47.0057 153.85 46.867Z" fill="#EDCB6C"/>
<path d="M177.727 47.6533C177.703 47.7689 177.678 47.8845 177.51 48.2544C180.23 48.9018 181.505 51.0059 180.856 53.8267C179.941 57.8267 175.633 60.0001 172.094 60.0001C167.281 60.0001 164.729 57.7342 165.692 53.5724C166.679 49.318 171.324 46.5435 175.127 46.5435C175.729 46.5435 176.547 46.6359 177.173 46.8209C177.582 46.9828 177.847 47.1215 177.727 47.6533ZM174.309 50.3816C172.383 50.5666 170.674 51.8845 170.241 53.7342C169.88 55.2602 171.059 56.1388 172.672 56.1388C174.188 56.1388 176.066 55.2602 176.403 53.7342C176.619 52.74 176.09 52.0926 175.127 51.8151C174.333 51.5608 174.092 51.4221 174.309 50.3816Z" fill="#EDCB6C"/>
<path d="M66.6234 69.5481C67.1529 69.5481 67.6343 69.525 67.8028 69.525C68.0435 69.5019 68.2601 69.5019 68.3323 69.5019C68.5249 69.5019 68.573 69.5713 68.573 69.7562C68.573 69.8487 68.573 69.9412 68.5489 70.0568C68.5489 70.1262 68.5249 70.1724 68.5008 70.2418C68.4526 70.4036 68.3564 70.473 68.1638 70.473C67.6343 70.5192 67.1529 70.5424 66.6715 70.5424C66.3105 70.5424 65.9495 70.5424 65.5643 70.5192C65.4199 70.4961 65.3237 70.4499 65.3477 70.288C65.3959 69.895 65.444 69.5019 65.5162 69.132C65.6847 68.2071 65.9254 67.2591 66.2383 66.3111C66.3105 66.1262 66.4068 66.0337 66.6475 66.0337C66.8641 66.0337 67.1048 66.0568 67.3214 66.0799C67.4899 66.1031 67.5139 66.2187 67.4899 66.3111C67.4899 66.3574 67.4417 66.4499 67.4177 66.5192C67.1288 67.3516 66.8641 68.3227 66.6715 69.34L66.6234 69.5481Z" fill="#95BFA1"/>
<path d="M71.7501 67.6529C71.7501 67.6761 71.7501 67.6992 71.702 67.7917C72.3519 67.9535 72.6888 68.4391 72.5444 69.1327C72.3759 70.0807 71.365 70.6125 70.5226 70.6125C69.3914 70.6125 68.7415 70.0807 68.934 69.0634C69.1266 68.046 70.1856 67.3755 71.1003 67.3755C71.2447 67.3755 71.4372 67.3986 71.5817 67.4449C71.7261 67.4911 71.7742 67.5142 71.7501 67.6529ZM70.9799 68.3003C70.5226 68.3466 70.1375 68.6703 70.0412 69.1096C69.969 69.4795 70.2579 69.6876 70.643 69.6876C71.004 69.6876 71.4372 69.4795 71.5094 69.1096C71.5576 68.8784 71.4132 68.7165 71.1965 68.6472C71.004 68.5778 70.9318 68.5547 70.9799 68.3003Z" fill="#95BFA1"/>
<path d="M76.3955 71.8845C76.227 71.8845 76.2029 71.8151 76.227 71.6764C76.227 71.6301 76.2511 71.607 76.564 70.2197C76.227 70.4509 75.8419 70.5897 75.4808 70.5897C74.6384 70.5897 74.1811 70.0579 74.3496 69.2255C74.5421 68.1851 75.529 67.422 76.5158 67.422C76.7084 67.422 76.925 67.4683 77.0935 67.5377C77.1416 67.422 77.1898 67.3989 77.3101 67.3989C77.4064 67.3989 77.7193 67.4452 77.9118 67.4914C78.1766 67.5608 78.2007 67.6533 78.1285 68.0463C77.984 68.8324 77.6952 70.2197 77.3582 71.3758C77.286 71.6301 77.1898 71.7226 76.9491 71.8151C76.8047 71.8382 76.5158 71.8845 76.3955 71.8845ZM76.925 68.3469C76.8047 68.3007 76.6843 68.2775 76.5399 68.2775C76.0104 68.2775 75.6012 68.7168 75.5531 69.0637C75.4808 69.4567 75.6734 69.6417 76.0104 69.6417C76.227 69.6417 76.4917 69.5261 76.7324 69.3411C76.8046 68.9943 76.8769 68.6475 76.925 68.3469Z" fill="#95BFA1"/>
<path d="M81.1612 70.4737C80.9205 70.5662 80.6076 70.6124 80.391 70.6124C80.2466 70.6124 80.1743 70.5431 80.1984 70.4275C80.1984 70.3812 80.2225 70.335 80.2225 70.2656C79.8614 70.4737 79.4763 70.5893 79.0912 70.5893C78.7302 70.5893 78.0803 70.4968 78.2247 69.7107C78.2969 69.2714 78.4895 68.4853 78.7302 67.7454C78.8024 67.5142 78.9709 67.4448 79.2356 67.4448C79.3801 67.4448 79.5485 67.4679 79.6448 67.5142C79.7892 67.5604 79.8374 67.6298 79.8133 67.7916C79.7892 67.9766 79.5485 68.6703 79.4282 69.3177C79.3801 69.5257 79.4523 69.6414 79.6208 69.6414C79.8374 69.6414 80.1262 69.572 80.391 69.4101C80.5354 68.6471 80.5594 67.9766 80.5835 67.8148C80.6076 67.6529 80.7039 67.5604 80.9927 67.5142C81.113 67.4911 81.2815 67.4679 81.3778 67.4679C81.6185 67.4679 81.7388 67.5142 81.7148 67.7454C81.6666 68.3697 81.5944 69.0402 81.4741 69.6876C81.45 69.8494 81.4259 69.9882 81.3778 70.15C81.3778 70.2888 81.3537 70.4044 81.1612 70.4737Z" fill="#95BFA1"/>
<path d="M83.1108 69.3408C83.2552 69.5258 83.5199 69.6414 83.8328 69.6414C84.0495 69.6414 84.4105 69.572 84.6753 69.4564C84.7475 69.4333 84.7956 69.4102 84.8197 69.4102C84.8919 69.4102 84.916 69.4564 84.916 69.5489C84.916 69.6414 84.94 69.7339 84.94 69.8264C84.94 69.8726 84.94 69.9188 84.94 69.942C84.916 70.0113 84.8919 70.0807 84.7956 70.1501C84.4827 70.3813 83.9532 70.5431 83.3755 70.5431C82.509 70.5431 81.8351 69.9188 82.0036 68.994C82.1721 68.046 83.1108 67.3755 84.0013 67.3755C85.2048 67.3755 85.4455 68.3235 85.3492 68.7859C85.3251 68.8784 85.277 68.9709 85.1326 69.0171C84.6993 69.179 83.8088 69.2946 83.1108 69.3408ZM83.0867 68.7165C83.4718 68.6934 83.9532 68.6703 84.3383 68.6009C84.2902 68.3697 84.0735 68.2541 83.8569 68.2541C83.5681 68.2541 83.2311 68.4391 83.0867 68.7165Z" fill="#95BFA1"/>
<path d="M87.9968 66.127C88.2134 66.0807 88.5023 66.0576 88.6948 66.0576C88.8152 66.0576 88.8874 66.1039 88.8392 66.2888C88.8152 66.4738 88.767 66.6819 88.743 66.89C88.5263 68.0229 88.2375 69.4333 88.0449 70.1501C87.9727 70.3813 87.9487 70.4969 87.6598 70.5201C87.6117 70.5201 87.5636 70.5201 87.4914 70.5201C87.4191 70.5201 87.3469 70.5201 87.2988 70.5201C87.034 70.4969 86.9859 70.4044 87.01 70.2195C87.034 69.8495 87.1303 69.2715 87.2507 68.6472C87.371 67.9536 87.5395 67.1674 87.732 66.4969C87.8043 66.1963 87.8765 66.1501 87.9968 66.127Z" fill="#95BFA1"/>
<path d="M89.8742 69.3408C90.0186 69.5258 90.2834 69.6414 90.5963 69.6414C90.8129 69.6414 91.1739 69.572 91.4387 69.4564C91.5109 69.4333 91.559 69.4102 91.5831 69.4102C91.6553 69.4102 91.6794 69.4564 91.6794 69.5489C91.6794 69.6414 91.7034 69.7339 91.7034 69.8264C91.7034 69.8726 91.7034 69.9188 91.7034 69.942C91.6794 70.0113 91.6553 70.0807 91.559 70.1501C91.2461 70.3813 90.7166 70.5431 90.139 70.5431C89.2725 70.5431 88.5985 69.9188 88.767 68.994C88.9355 68.046 89.8742 67.3755 90.7648 67.3755C91.9682 67.3755 92.2089 68.3235 92.1126 68.7859C92.0886 68.8784 92.0404 68.9709 91.896 69.0171C91.4628 69.179 90.5722 69.2946 89.8742 69.3408ZM89.8501 68.7165C90.2352 68.6934 90.7166 68.6703 91.1017 68.6009C91.0536 68.3697 90.837 68.2541 90.6203 68.2541C90.3315 68.2541 90.0186 68.4391 89.8501 68.7165Z" fill="#95BFA1"/>
<path d="M95.9396 70.2195C95.6026 70.4507 95.2657 70.5663 94.9287 70.5663C94.0622 70.5663 93.6531 69.942 93.7975 69.1328C93.99 68.0923 94.9769 67.3987 95.9637 67.3987C96.1562 67.3987 96.3969 67.4218 96.5654 67.5143C96.6617 67.0518 96.7339 66.6588 96.782 66.4044C96.8302 66.1039 96.9024 66.0576 97.119 66.0576C97.1912 66.0576 97.2393 66.0576 97.3115 66.0576C97.4319 66.0576 97.5763 66.0576 97.6726 66.0807C97.8892 66.1039 97.9614 66.1501 97.9133 66.4276C97.7689 67.1674 97.4078 68.9709 97.0468 70.1732C96.9746 70.4044 96.8783 70.4969 96.6376 70.52C96.5654 70.5432 96.4691 70.5432 96.3488 70.5432C96.2766 70.5432 96.1803 70.5432 96.1322 70.5432C95.8915 70.4969 95.8915 70.4276 95.9396 70.2195ZM96.3729 68.3466C96.2525 68.3004 96.1322 68.2773 95.9637 68.2773C95.4342 68.2773 95.0491 68.7166 94.9769 69.0634C94.9046 69.4102 95.0491 69.6414 95.4342 69.6414C95.6508 69.6414 95.9155 69.5258 96.1562 69.3409L96.3729 68.3466Z" fill="#95BFA1"/>
<path d="M99.9351 70.2429C99.5981 70.451 99.2612 70.5897 98.8761 70.5897C98.0336 70.5897 97.6245 70.0348 97.7689 69.2949C97.9614 68.2313 99.0445 67.4221 99.9832 67.4221C100.176 67.4221 100.368 67.4683 100.537 67.5377C100.585 67.3758 100.633 67.3296 100.753 67.3296C100.898 67.3296 101.163 67.3758 101.379 67.4221C101.596 67.4683 101.668 67.5377 101.62 67.8151C101.476 68.555 101.283 69.4336 101.042 70.1735C100.97 70.4047 100.874 70.4972 100.633 70.5203C100.561 70.5435 100.465 70.5435 100.344 70.5435C100.272 70.5435 100.176 70.5435 100.128 70.5435C99.911 70.4972 99.911 70.4278 99.9351 70.2429ZM100.368 68.37C100.248 68.3238 100.128 68.2776 99.9592 68.2776C99.4296 68.2776 99.0445 68.7631 98.9723 69.1099C98.9242 69.4105 99.0927 69.6186 99.4537 69.6186C99.6703 69.6186 99.911 69.5261 100.152 69.3411C100.224 69.0406 100.32 68.6937 100.368 68.37Z" fill="#95BFA1"/>
<path d="M102.655 70.5664C102.294 70.5664 102.005 70.5202 101.764 70.4277C101.644 70.3814 101.596 70.3352 101.62 70.2196C101.62 70.1734 101.644 70.1502 101.668 70.0809C101.716 69.9653 101.837 69.8034 101.885 69.7109C101.957 69.6184 101.981 69.5722 102.053 69.5722C102.101 69.5722 102.149 69.5953 102.222 69.6184C102.366 69.6878 102.559 69.734 102.703 69.734C102.896 69.734 103.04 69.6878 103.064 69.5953C103.112 69.3179 101.764 69.2947 101.933 68.3468C102.053 67.7456 102.847 67.3525 103.594 67.3525C103.907 67.3525 104.243 67.3988 104.508 67.4913C104.629 67.5375 104.701 67.6069 104.677 67.7687C104.653 67.9537 104.556 68.208 104.484 68.3468C104.412 68.4624 104.364 68.5549 104.195 68.5549C104.051 68.5549 103.931 68.5317 103.81 68.5086C103.642 68.4855 103.618 68.4393 103.666 68.2543V68.208C103.594 68.1849 103.521 68.1849 103.473 68.1849C103.233 68.1849 103.064 68.2312 103.04 68.3699C102.992 68.6473 104.508 68.6705 104.34 69.6416C104.171 70.2196 103.473 70.5664 102.655 70.5664Z" fill="#95BFA1"/>
<path d="M107.06 66.127C107.276 66.0807 107.661 66.0576 107.878 66.0576C108.022 66.0576 108.022 66.127 107.998 66.2426C107.974 66.4044 107.806 67.1443 107.685 67.7224C108.046 67.5143 108.432 67.3987 108.817 67.3987C109.178 67.3987 109.828 67.4911 109.683 68.2773C109.611 68.7166 109.418 69.5027 109.178 70.2426C109.13 70.3813 109.057 70.5201 108.841 70.5201C108.72 70.5201 108.48 70.4969 108.287 70.4507C108.143 70.4276 108.095 70.3351 108.119 70.1732C108.143 70.0807 108.311 69.5258 108.48 68.6472C108.528 68.4391 108.456 68.3235 108.287 68.3235C108.07 68.3235 107.806 68.3929 107.541 68.5547C107.421 69.179 107.348 69.7802 107.324 70.1501C107.324 70.1963 107.324 70.2426 107.324 70.2888C107.3 70.4276 107.228 70.4969 106.939 70.5201C106.867 70.5201 106.795 70.5201 106.723 70.5201C106.65 70.5201 106.578 70.5201 106.506 70.5201C106.241 70.4969 106.193 70.4044 106.217 70.2195C106.241 69.7108 106.362 68.7628 106.53 67.838C106.602 67.3755 106.723 66.9362 106.819 66.52C106.867 66.2888 106.891 66.1501 107.06 66.127Z" fill="#95BFA1"/>
<path d="M112.668 67.6529C112.668 67.6761 112.668 67.6992 112.62 67.7917C113.269 67.9535 113.606 68.4391 113.462 69.1327C113.293 70.0807 112.283 70.6125 111.44 70.6125C110.309 70.6125 109.659 70.0807 109.852 69.0634C110.044 68.046 111.103 67.3755 112.018 67.3755C112.162 67.3755 112.355 67.3986 112.499 67.4449C112.62 67.4911 112.692 67.5142 112.668 67.6529ZM111.873 68.3003C111.416 68.3466 111.031 68.6703 110.935 69.1096C110.862 69.4795 111.151 69.6876 111.536 69.6876C111.897 69.6876 112.331 69.4795 112.403 69.1096C112.451 68.8784 112.307 68.7165 112.09 68.6472C111.897 68.5778 111.825 68.5547 111.873 68.3003Z" fill="#95BFA1"/>
<path d="M115.387 71.9997C114.762 71.9997 114.304 71.9072 113.847 71.676C113.751 71.6298 113.679 71.5373 113.679 71.4448C113.703 71.3523 113.871 71.0749 113.991 70.913C114.064 70.8205 114.112 70.7743 114.184 70.7743C114.232 70.7743 114.28 70.7974 114.353 70.8205C114.762 70.9593 115.051 71.0055 115.484 71.0055C115.58 70.7281 115.676 70.4275 115.749 70.15C115.387 70.3812 114.978 70.4737 114.593 70.4737C114.232 70.4737 113.582 70.3812 113.727 69.6182C113.799 69.1789 113.991 68.439 114.232 67.7223C114.304 67.4911 114.449 67.4448 114.738 67.4448C114.882 67.4448 115.051 67.4679 115.147 67.5142C115.291 67.5604 115.339 67.6298 115.315 67.7916C115.291 67.9535 115.051 68.6471 114.93 69.2714C114.906 69.4564 114.954 69.5951 115.123 69.5951C115.339 69.5951 115.628 69.5257 115.917 69.3639C116.013 68.7396 116.061 67.9304 116.085 67.8379C116.11 67.676 116.206 67.5836 116.495 67.5373C116.615 67.5142 116.783 67.4911 116.88 67.4911C117.12 67.4911 117.241 67.5373 117.217 67.7685C117.193 68.2078 117.096 69.0171 116.952 69.8263C116.856 70.3812 116.735 70.9593 116.591 71.3986C116.422 71.676 115.965 71.9997 115.387 71.9997Z" fill="#95BFA1"/>
<path d="M118.035 69.1787C118.228 69.1787 118.541 69.2712 118.733 69.4099C118.878 69.4793 118.926 69.5487 118.902 69.6411C118.902 69.7105 118.853 69.7799 118.805 69.8724C118.565 70.2654 118.228 70.7278 117.867 71.0747C117.722 71.2134 117.626 71.2828 117.506 71.2828C117.482 71.2828 117.433 71.2828 117.385 71.2596C117.265 71.2365 117.169 71.2134 117.072 71.144C116.976 71.0747 116.952 71.0053 116.976 70.9128C117 70.8203 117.12 70.5429 117.145 70.4735C117.313 70.0804 117.457 69.7799 117.722 69.4099C117.794 69.2712 117.891 69.1787 118.035 69.1787Z" fill="#95BFA1"/>
<path d="M122.031 66.127C122.247 66.0807 122.536 66.0576 122.729 66.0576C122.849 66.0576 122.921 66.1039 122.873 66.2888C122.849 66.4738 122.801 66.6819 122.777 66.89C122.56 68.0229 122.271 69.4333 122.079 70.1501C122.007 70.3813 121.982 70.4969 121.694 70.5201C121.645 70.5201 121.597 70.5201 121.525 70.5201C121.453 70.5201 121.381 70.5201 121.333 70.5201C121.068 70.4969 121.02 70.4044 121.044 70.2195C121.068 69.8495 121.164 69.2715 121.284 68.6472C121.405 67.9536 121.573 67.1674 121.766 66.4969C121.838 66.1963 121.886 66.1501 122.031 66.127Z" fill="#95BFA1"/>
<path d="M123.884 69.3408C124.028 69.5258 124.293 69.6414 124.606 69.6414C124.823 69.6414 125.184 69.572 125.448 69.4564C125.521 69.4333 125.569 69.4102 125.593 69.4102C125.665 69.4102 125.689 69.4564 125.689 69.5489C125.713 69.6414 125.713 69.7339 125.713 69.8264C125.713 69.8726 125.713 69.9188 125.713 69.942C125.689 70.0113 125.665 70.0807 125.569 70.1501C125.256 70.3813 124.726 70.5431 124.149 70.5431C123.282 70.5431 122.608 69.9188 122.777 68.994C122.945 68.046 123.884 67.3755 124.774 67.3755C125.978 67.3755 126.219 68.3235 126.122 68.7859C126.098 68.8784 126.05 68.9709 125.906 69.0171C125.472 69.179 124.606 69.2946 123.884 69.3408ZM123.884 68.7165C124.269 68.6934 124.75 68.6703 125.136 68.6009C125.087 68.3697 124.871 68.2541 124.654 68.2541C124.341 68.2541 124.028 68.4391 123.884 68.7165Z" fill="#95BFA1"/>
<path d="M129.949 70.2195C129.612 70.4507 129.275 70.5663 128.938 70.5663C128.072 70.5663 127.663 69.942 127.807 69.1328C128 68.0923 128.987 67.3987 129.973 67.3987C130.166 67.3987 130.407 67.4218 130.575 67.5143C130.671 67.0518 130.744 66.6588 130.792 66.4044C130.84 66.1039 130.912 66.0576 131.129 66.0576C131.201 66.0576 131.249 66.0576 131.321 66.0576C131.442 66.0576 131.586 66.0576 131.682 66.0807C131.899 66.1039 131.971 66.1501 131.923 66.4276C131.779 67.1674 131.418 68.9709 131.057 70.1732C130.984 70.4044 130.888 70.4969 130.647 70.52C130.575 70.5432 130.479 70.5432 130.359 70.5432C130.286 70.5432 130.19 70.5432 130.142 70.5432C129.901 70.4969 129.925 70.4276 129.949 70.2195ZM130.383 68.3466C130.262 68.3004 130.142 68.2773 129.973 68.2773C129.444 68.2773 129.059 68.7166 128.987 69.0634C128.914 69.4102 129.059 69.6414 129.444 69.6414C129.661 69.6414 129.925 69.5258 130.166 69.3409L130.383 68.3466Z" fill="#95BFA1"/>
<path d="M134.691 70.4737C134.45 70.5662 134.137 70.6124 133.921 70.6124C133.776 70.6124 133.704 70.5431 133.728 70.4275C133.728 70.3812 133.752 70.335 133.752 70.2656C133.391 70.4737 133.006 70.5893 132.621 70.5893C132.26 70.5893 131.61 70.4968 131.755 69.7107C131.827 69.2714 132.019 68.4853 132.26 67.7454C132.332 67.5142 132.501 67.4448 132.765 67.4448C132.91 67.4448 133.078 67.4679 133.175 67.5142C133.319 67.5604 133.367 67.6298 133.343 67.7916C133.319 67.9766 133.078 68.6703 132.958 69.3177C132.91 69.5257 132.982 69.6414 133.151 69.6414C133.367 69.6414 133.656 69.572 133.921 69.4101C134.065 68.6471 134.089 67.9766 134.113 67.8148C134.137 67.6529 134.234 67.5604 134.522 67.5142C134.643 67.4911 134.811 67.4679 134.908 67.4679C135.148 67.4679 135.269 67.5142 135.245 67.7454C135.196 68.3697 135.124 69.0402 135.004 69.6876C134.98 69.8494 134.956 69.9882 134.908 70.15C134.884 70.2888 134.859 70.4044 134.691 70.4737Z" fill="#95BFA1"/>
<path d="M136.135 67.4449C136.352 67.3986 136.737 67.3755 136.953 67.3755C137.074 67.3755 137.098 67.4449 137.098 67.5373C137.098 67.5836 137.074 67.6761 137.05 67.7223C137.339 67.5142 137.676 67.3755 138.013 67.3755C138.253 67.3755 138.325 67.6067 138.349 67.8148C138.349 67.9998 138.325 68.2541 138.277 68.416C138.253 68.5778 138.133 68.7165 137.868 68.8553C137.748 68.9015 137.531 68.994 137.411 68.994C137.266 68.994 137.218 68.8553 137.242 68.7165C137.266 68.624 137.29 68.4391 137.266 68.3466C137.122 68.3928 137.026 68.4622 136.881 68.5547C136.713 69.4564 136.689 70.1501 136.665 70.2888C136.641 70.4275 136.568 70.4969 136.28 70.52C136.207 70.52 136.135 70.52 136.063 70.52C135.991 70.52 135.918 70.52 135.846 70.52C135.582 70.4969 135.533 70.4044 135.557 70.2194C135.606 69.5951 135.678 68.9246 135.798 68.2772C135.822 68.1385 135.846 67.9766 135.894 67.8379C135.943 67.6298 135.967 67.4911 136.135 67.4449Z" fill="#95BFA1"/>
<path d="M140.492 70.2429C140.155 70.451 139.818 70.5897 139.433 70.5897C138.59 70.5897 138.181 70.0348 138.325 69.2949C138.518 68.2313 139.601 67.4221 140.54 67.4221C140.732 67.4221 140.925 67.4683 141.093 67.5377C141.142 67.3758 141.19 67.3296 141.31 67.3296C141.454 67.3296 141.719 67.3758 141.936 67.4221C142.152 67.4683 142.225 67.5377 142.176 67.8151C142.032 68.555 141.84 69.4336 141.599 70.1735C141.527 70.4047 141.43 70.4972 141.19 70.5203C141.117 70.5435 141.021 70.5435 140.901 70.5435C140.829 70.5435 140.732 70.5435 140.684 70.5435C140.468 70.4972 140.468 70.4278 140.492 70.2429ZM140.925 68.37C140.805 68.3238 140.684 68.2776 140.516 68.2776C139.986 68.2776 139.601 68.7631 139.529 69.1099C139.481 69.4105 139.649 69.6186 140.01 69.6186C140.227 69.6186 140.468 69.5261 140.708 69.3411C140.78 69.0406 140.877 68.6937 140.925 68.37Z" fill="#95BFA1"/>
<path d="M144.487 67.6528L144.511 67.4678C144.535 67.306 144.583 67.1673 144.607 66.9823C144.68 66.6817 144.776 66.543 145.594 66.543C145.787 66.543 145.835 66.6355 145.811 66.8204C145.787 66.8898 145.691 67.3291 145.618 67.6297C145.763 67.6528 145.907 67.6528 146.076 67.6759C146.244 67.699 146.292 67.7684 146.268 67.9302C146.244 67.9996 146.22 68.1615 146.172 68.2771C146.1 68.4389 146.028 68.4852 145.835 68.5083C145.715 68.5314 145.546 68.5314 145.474 68.5314C145.402 69.0863 145.281 70.0574 145.257 70.2193C145.233 70.358 145.161 70.4274 144.968 70.4505C144.8 70.4736 144.632 70.4967 144.463 70.4967C144.295 70.4967 144.222 70.4505 144.246 70.2424C144.27 69.6643 144.319 69.0863 144.391 68.4852L144.222 68.462C144.03 68.4389 143.982 68.3927 143.982 68.2077C143.982 68.1152 144.006 68.0227 144.006 67.9534C144.078 67.7222 144.15 67.6759 144.487 67.6528Z" fill="#95BFA1"/>
<path d="M149.036 67.6529C149.036 67.6761 149.036 67.6992 148.988 67.7917C149.638 67.9535 149.975 68.4391 149.83 69.1327C149.662 70.0807 148.651 70.6125 147.809 70.6125C146.677 70.6125 146.028 70.0807 146.22 69.0634C146.413 68.046 147.472 67.3755 148.386 67.3755C148.531 67.3755 148.723 67.3986 148.868 67.4449C148.988 67.4911 149.06 67.5142 149.036 67.6529ZM148.242 68.3003C147.785 68.3466 147.399 68.6703 147.303 69.1096C147.231 69.4795 147.52 69.6876 147.905 69.6876C148.266 69.6876 148.699 69.4795 148.771 69.1096C148.82 68.8784 148.675 68.7165 148.459 68.6472C148.266 68.5778 148.218 68.5547 148.242 68.3003Z" fill="#95BFA1"/>
<path d="M152.261 70.2195C151.924 70.4507 151.588 70.5663 151.251 70.5663C150.384 70.5663 149.975 69.942 150.119 69.1328C150.312 68.0923 151.299 67.3987 152.286 67.3987C152.478 67.3987 152.719 67.4218 152.887 67.5143C152.984 67.0518 153.056 66.6588 153.104 66.4044C153.152 66.1039 153.224 66.0576 153.441 66.0576C153.513 66.0576 153.561 66.0576 153.633 66.0576C153.754 66.0576 153.898 66.0576 153.994 66.0807C154.211 66.1039 154.283 66.1501 154.235 66.4276C154.091 67.1674 153.73 68.9709 153.369 70.1732C153.296 70.4044 153.2 70.4969 152.959 70.52C152.887 70.5432 152.791 70.5432 152.671 70.5432C152.598 70.5432 152.502 70.5432 152.454 70.5432C152.213 70.4969 152.213 70.4276 152.261 70.2195ZM152.695 68.3466C152.574 68.3004 152.454 68.2773 152.286 68.2773C151.756 68.2773 151.371 68.7166 151.299 69.0634C151.226 69.4102 151.371 69.6414 151.756 69.6414C151.973 69.6414 152.237 69.5258 152.478 69.3409L152.695 68.3466Z" fill="#95BFA1"/>
<path d="M156.257 70.2429C155.92 70.451 155.583 70.5897 155.198 70.5897C154.355 70.5897 153.946 70.0348 154.091 69.2949C154.283 68.2313 155.366 67.4221 156.305 67.4221C156.498 67.4221 156.69 67.4683 156.859 67.5377C156.907 67.3758 156.955 67.3296 157.075 67.3296C157.22 67.3296 157.484 67.3758 157.701 67.4221C157.918 67.4683 157.99 67.5377 157.942 67.8151C157.797 68.555 157.605 69.4336 157.364 70.1735C157.292 70.4047 157.196 70.4972 156.955 70.5203C156.883 70.5435 156.786 70.5435 156.666 70.5435C156.594 70.5435 156.498 70.5435 156.449 70.5435C156.233 70.4972 156.233 70.4278 156.257 70.2429ZM156.69 68.37C156.57 68.3238 156.449 68.2776 156.281 68.2776C155.751 68.2776 155.366 68.7631 155.294 69.1099C155.246 69.4105 155.414 69.6186 155.776 69.6186C155.992 69.6186 156.233 69.5261 156.474 69.3411C156.546 69.0406 156.642 68.6937 156.69 68.37Z" fill="#95BFA1"/>
<path d="M160.613 66.127C160.83 66.0807 161.119 66.0576 161.311 66.0576C161.432 66.0576 161.504 66.1039 161.456 66.2888C161.432 66.4738 161.384 66.6819 161.36 66.89C161.143 68.0229 160.854 69.4333 160.662 70.1501C160.589 70.3813 160.565 70.4969 160.276 70.5201C160.228 70.5201 160.18 70.5201 160.108 70.5201C160.036 70.5201 159.964 70.5201 159.915 70.5201C159.651 70.4969 159.602 70.4044 159.627 70.2195C159.651 69.8495 159.747 69.2715 159.867 68.6472C159.988 67.9536 160.156 67.1674 160.349 66.4969C160.421 66.1963 160.469 66.1501 160.613 66.127Z" fill="#95BFA1"/>
<path d="M163.502 70.2429C163.165 70.451 162.828 70.5897 162.443 70.5897C161.6 70.5897 161.191 70.0348 161.335 69.2949C161.528 68.2313 162.611 67.4221 163.55 67.4221C163.742 67.4221 163.935 67.4683 164.103 67.5377C164.152 67.3758 164.2 67.3296 164.32 67.3296C164.464 67.3296 164.729 67.3758 164.946 67.4221C165.162 67.4683 165.235 67.5377 165.187 67.8151C165.042 68.555 164.85 69.4336 164.609 70.1735C164.537 70.4047 164.44 70.4972 164.2 70.5203C164.128 70.5435 164.031 70.5435 163.911 70.5435C163.839 70.5435 163.742 70.5435 163.694 70.5435C163.478 70.4972 163.478 70.4278 163.502 70.2429ZM163.935 68.37C163.815 68.3238 163.694 68.2776 163.526 68.2776C162.996 68.2776 162.611 68.7631 162.539 69.1099C162.491 69.4105 162.659 69.6186 163.02 69.6186C163.237 69.6186 163.478 69.5261 163.718 69.3411C163.791 69.0406 163.887 68.6937 163.935 68.37Z" fill="#95BFA1"/>
<path d="M167.04 67.8612C167.064 67.7456 167.112 67.6762 167.257 67.63C167.497 67.5375 167.834 67.4681 168.027 67.4681C168.195 67.4681 168.195 67.5375 168.195 67.7224C168.171 68.3005 168.243 68.8323 168.412 69.3409C168.773 68.8554 169.038 68.3005 169.23 67.7918C169.302 67.5606 169.351 67.4219 169.687 67.4219C169.88 67.4219 170.049 67.445 170.193 67.4681C170.361 67.5144 170.385 67.5837 170.361 67.6993C170.289 68.1618 169.615 69.4797 168.893 70.2427C168.701 70.4508 168.628 70.497 168.412 70.497C168.316 70.497 168.219 70.5201 168.123 70.5201C168.003 70.5201 167.906 70.5201 167.81 70.497C167.618 70.4739 167.545 70.4045 167.473 70.2427C167.16 69.549 167.016 68.8092 167.016 67.9768C167.016 67.9537 167.016 67.9074 167.04 67.8612Z" fill="#95BFA1"/>
<path d="M171.011 67.5143C171.156 67.4912 171.372 67.468 171.541 67.468C171.613 67.468 171.685 67.468 171.757 67.468C171.878 67.468 171.902 67.5143 171.854 67.7224C171.685 68.601 171.541 69.3409 171.324 70.1732C171.252 70.4276 171.228 70.5201 170.915 70.5201C170.795 70.5201 170.674 70.5201 170.554 70.4969C170.289 70.4738 170.265 70.3813 170.289 70.1732C170.313 69.8727 170.361 69.5721 170.434 69.2946C170.53 68.8322 170.626 68.3698 170.747 67.8842C170.795 67.6761 170.843 67.5374 171.011 67.5143ZM172.191 66.6357C172.143 66.9594 171.974 67.1906 171.42 67.1906C170.939 67.1906 170.795 67.0519 170.891 66.5894C170.963 66.1964 171.18 65.9883 171.637 65.9883C172.118 65.9883 172.287 66.1039 172.191 66.6357Z" fill="#95BFA1"/>
<path d="M174.212 70.2195C173.875 70.4507 173.539 70.5663 173.202 70.5663C172.335 70.5663 171.926 69.942 172.07 69.1328C172.263 68.0923 173.25 67.3987 174.237 67.3987C174.429 67.3987 174.67 67.4218 174.838 67.5143C174.935 67.0518 175.007 66.6588 175.055 66.4044C175.103 66.1039 175.175 66.0576 175.392 66.0576C175.44 66.0576 175.512 66.0576 175.584 66.0576C175.705 66.0576 175.849 66.0576 175.945 66.0807C176.162 66.1039 176.234 66.1501 176.186 66.4276C176.042 67.1674 175.681 68.9709 175.32 70.1732C175.247 70.4044 175.151 70.4969 174.91 70.52C174.838 70.5432 174.742 70.5432 174.622 70.5432C174.549 70.5432 174.453 70.5432 174.405 70.5432C174.164 70.4969 174.164 70.4276 174.212 70.2195ZM174.646 68.3466C174.525 68.3004 174.405 68.2773 174.237 68.2773C173.707 68.2773 173.322 68.7166 173.25 69.0634C173.177 69.4102 173.322 69.6414 173.707 69.6414C173.924 69.6414 174.188 69.5258 174.429 69.3409L174.646 68.3466Z" fill="#95BFA1"/>
<path d="M178.208 70.2429C177.871 70.451 177.534 70.5897 177.149 70.5897C176.306 70.5897 175.897 70.0348 176.042 69.2949C176.234 68.2313 177.317 67.4221 178.256 67.4221C178.449 67.4221 178.641 67.4683 178.81 67.5377C178.858 67.3758 178.906 67.3296 179.026 67.3296C179.171 67.3296 179.435 67.3758 179.652 67.4221C179.869 67.4683 179.941 67.5377 179.893 67.8151C179.748 68.555 179.556 69.4336 179.315 70.1735C179.243 70.4047 179.147 70.4972 178.906 70.5203C178.834 70.5435 178.737 70.5435 178.617 70.5435C178.545 70.5435 178.449 70.5435 178.401 70.5435C178.184 70.4972 178.184 70.4278 178.208 70.2429ZM178.665 68.37C178.545 68.3238 178.425 68.2776 178.256 68.2776C177.727 68.2776 177.341 68.7631 177.269 69.1099C177.221 69.4105 177.39 69.6186 177.751 69.6186C177.967 69.6186 178.208 69.5261 178.449 69.3411C178.521 69.0406 178.593 68.6937 178.665 68.37Z" fill="#95BFA1"/>
<path d="M44.5279 35.0057C48.1038 35.0057 51.0025 32.2211 51.0025 28.7861C51.0025 25.351 48.1038 22.5664 44.5279 22.5664C40.9521 22.5664 38.0533 25.351 38.0533 28.7861C38.0533 32.2211 40.9521 35.0057 44.5279 35.0057Z" fill="#EDCB6C"/>
<path d="M54.4926 31.7689C54.0834 30.9828 53.1206 30.3123 52.5911 31.4683V31.4914C52.0375 32.7169 51.2914 33.8498 50.4008 34.844C47.9217 37.6186 44.2391 39.3065 40.4602 39.4452C38.5588 39.5146 36.6332 39.1909 34.8762 38.4741C32.9747 37.688 31.4584 36.1388 29.3162 35.8845C27.4388 35.6533 25.4892 36.6475 24.5987 38.2429C22.7935 41.5261 25.8262 44.4394 28.3775 46.2198C30.1586 47.4452 32.1564 48.3932 34.2745 48.925C37.8126 49.8267 41.4711 49.4799 44.8408 48.1851C47.32 47.2371 49.5343 45.5724 51.2192 43.5839C52.9762 41.5261 54.2278 38.9597 54.6851 36.3007C54.9258 34.9365 54.9499 33.5492 54.6851 32.1851C54.637 32.0926 54.5888 31.9307 54.4926 31.7689Z" fill="#EDCB6C"/>
<path d="M62.4349 55.7689C62.7237 54.3353 62.5552 52.8787 61.6406 51.5145C60.3168 49.5261 58.0061 48.2082 55.527 48.37C54.9975 48.3931 54.468 48.5088 53.9625 48.6475C52.6869 49.0405 51.5075 49.7111 50.304 50.2891C44.5515 52.9943 37.8362 53.5492 31.6504 51.9538C26.6922 50.6822 22.1672 48.0463 18.7253 44.3931C15.3075 40.8093 12.9728 36.3238 12.0822 31.5377C11.5527 28.7631 11.5046 25.896 11.9378 23.0983C12.1544 21.5955 12.5155 20.1619 12.9968 18.7746C13.7189 16.6706 10.975 15.0983 9.41054 16.6937C4.71705 21.4105 1.46772 27.5145 0.408676 34.4741C-2.31114 52.3238 10.5418 68.9018 29.0991 71.5377C34.972 72.37 41.0374 71.6995 46.5492 69.5955C51.7241 67.6301 56.7786 64.37 60.2205 60.1619C61.2314 58.8903 62.122 57.3642 62.4349 55.7689Z" fill="#95BFA1"/>
<path d="M28.0406 23.3988C34.7668 23.3988 40.2196 18.1608 40.2196 11.6994C40.2196 5.23801 34.7668 0 28.0406 0C21.3143 0 15.8616 5.23801 15.8616 11.6994C15.8616 18.1608 21.3143 23.3988 28.0406 23.3988Z" fill="#95BFA1"/>
</svg>
