<svg xmlns="http://www.w3.org/2000/svg" xmlns:xlink="http://www.w3.org/1999/xlink" version="1.1" id="Capa_1" x="0" y="0" viewBox="0 0 150 61" xml:space="preserve" enable-background="new 0 0 150 61">
  <style type="text/css">
    
	.st0{fill:#010002;}
	.st1{fill:#BE0411;}
	.st2{clip-path:url(#SVGID_2_);}
	.st3{fill-rule:evenodd;clip-rule:evenodd;fill:#010002;}

  </style>
  <path class="st0" d="M71.4 35.8c-0.6 0-1.8 0-2.2 0 -0.6 0-0.6-0.4-0.6-0.4V24.2c0 0 0-0.9 1-0.9 0.2 0 2.7 0 3.7 0 0.4 0 0.5 0.4 0.5 0.4l3.8 8.9v-8.7c0 0-0.1-0.5 0.5-0.5 0.4 0 1.5 0 2.2 0 0.6 0 0.5 0.6 0.5 0.6v11.3c0 0 0 0.6-0.5 0.6 -1.1 0-3.6 0-4 0 -0.5 0-0.7-0.4-0.7-0.4l-3.8-9v8.8C71.8 35.3 71.9 35.8 71.4 35.8z"/>
  <path class="st0" d="M81.9 28.3c0-1.9 0.4-3.2 1.1-4 0.7-0.8 2-1.1 3.8-1.1h1.7c1.8 0 3.1 0.4 3.8 1.1 0.7 0.8 1.1 2.1 1.1 4v2.6c0 1.9-0.4 3.2-1.1 4 -0.7 0.8-2 1.1-3.8 1.1h-1.7c-1.8 0-3-0.4-3.8-1.1 -0.7-0.8-1.1-2.1-1.1-4V28.3zM85.3 28.5v2.1c0 1.1 0.1 1.7 0.4 2 0.2 0.3 0.8 0.4 1.5 0.4h0.6c0.8 0 1.3-0.1 1.5-0.4 0.2-0.3 0.4-0.9 0.4-2v-2.1c0-1.1-0.1-1.7-0.4-2 -0.2-0.3-0.8-0.4-1.5-0.4h-0.6c-0.8 0-1.3 0.1-1.5 0.4C85.5 26.8 85.3 27.5 85.3 28.5z"/>
  <path class="st0" d="M99.8 35.8c-0.5 0-2 0-2.6 0 -0.5 0-0.5-0.5-0.5-0.5v-9.2c0 0-2.5 0-2.9 0 -0.4 0-0.4-0.3-0.4-0.3v-2.1c0 0 0-0.4 0.4-0.4 0.4 0 8.9 0 9.2 0 0.3 0 0.3 0.3 0.3 0.3v2.1c0 0 0 0.4-0.4 0.4 -0.4 0-2.9 0-2.9 0v9.2C100.2 35.3 100.3 35.8 99.8 35.8z"/>
  <path class="st0" d="M107.8 35.8h-2.7c0 0-0.4 0-0.4-0.3 0-0.3 0-11.5 0-11.8 0-0.3 0.3-0.3 0.3-0.3h2.8c0 0 0.3 0 0.3 0.3 0 0.3 0 11.3 0 11.7C108.1 35.8 107.8 35.8 107.8 35.8z"/>
  <path class="st0" d="M123.9 35.8h-2.7c0 0-0.4 0-0.4-0.3 0-0.3 0-11.5 0-11.8 0-0.3 0.3-0.3 0.3-0.3h2.8c0 0 0.3 0 0.3 0.3 0 0.3 0 11.3 0 11.7C124.3 35.8 123.9 35.8 123.9 35.8z"/>
  <path class="st0" d="M116.8 31c0.3 0 2.5 0 2.8 0 0.2 0 0.3 0.4 0.3 0.4 0 1.6-0.4 2.8-1.1 3.5 -0.7 0.7-1.9 1.1-3.6 1.1h-1.1c-1.8 0-3-0.4-3.8-1.1 -0.7-0.8-1.1-2.1-1.1-4v-2.6c0-1.9 0.4-3.2 1.1-4 0.7-0.8 2-1.1 3.8-1.1h0.9c1.8 0 3 0.3 3.7 1 0.7 0.6 1 1.7 1.1 3.3 0 0.1 0 0.1 0 0.2 0 0 0 0.2-0.4 0.2 -0.4 0-2.3 0-2.6 0 -0.3 0-0.4-0.2-0.4-0.2 0-0.1 0-0.2 0-0.3 0-0.4-0.2-0.7-0.4-0.9 -0.3-0.2-0.7-0.4-1.4-0.4 -0.7 0-1.2 0.1-1.5 0.4 -0.2 0.3-0.4 1-0.4 2v2.1c0 1.1 0.1 1.7 0.4 2 0.2 0.3 0.7 0.4 1.5 0.4 0.7 0 1.2-0.1 1.4-0.4 0.3-0.3 0.4-0.7 0.4-1.4C116.5 31.3 116.5 31 116.8 31z"/>
  <path class="st0" d="M128.8 35.8c-0.2 0-2.6 0-3 0 -0.4 0-0.2-0.3-0.2-0.3l3.5-11.9c0 0 0.1-0.2 0.3-0.2 0.3 0 4.5 0 4.7 0 0.2 0 0.3 0.2 0.3 0.2l3.4 12c0 0 0.1 0.3-0.2 0.3 -0.3 0-2.7 0-3 0 -0.3 0-0.4-0.3-0.4-0.3l-0.5-1.8c0 0 0-0.1-0.2-0.1 -0.2 0-3.5 0-3.7 0 -0.2 0-0.2 0.1-0.2 0.1l-0.5 1.8C129.2 35.5 129.1 35.8 128.8 35.8zM130.4 30.8c0 0 0 0.2 0.2 0.2 0.2 0 2.1 0 2.3 0 0.2 0 0.1-0.2 0.1-0.2l-1.2-5h-0.2L130.4 30.8z"/>
  <path class="st0" d="M138 32.2c0-0.2 0.3-0.3 0.3-0.3s2.5 0 2.7 0c0.2 0 0.2 0.1 0.2 0.1 0 0.5 0.1 0.8 0.4 0.9 0.2 0.2 0.7 0.3 1.3 0.3h0.8c0.5 0 0.9-0.1 1.1-0.2 0.2-0.1 0.3-0.4 0.3-0.7v-0.5c0-0.3-0.1-0.5-0.2-0.6 -0.2-0.1-0.5-0.2-1.1-0.3l-2.8-0.3c-1-0.1-1.8-0.4-2.2-1 -0.5-0.5-0.7-1.3-0.7-2.3v-0.8c0-0.6 0.1-1.1 0.3-1.6 0.2-0.5 0.5-0.8 0.8-1.1 0.3-0.3 0.7-0.4 1.1-0.5 0.4-0.1 1.1-0.2 2-0.2h2c1.3 0 2.2 0.3 2.9 0.8 0.7 0.5 1 1.2 1 2.2v0.6c0 0 0 0.3-0.2 0.3 -0.2 0-2.5 0-2.8 0 -0.3 0-0.3-0.1-0.3-0.1 0 0 0 0 0-0.1 0-0.3-0.1-0.6-0.3-0.7 -0.2-0.1-0.5-0.2-1-0.2h-0.8c-0.5 0-0.9 0.1-1.1 0.2 -0.2 0.1-0.3 0.3-0.3 0.6v0.5c0 0.5 0.5 0.7 1.4 0.8l2.5 0.3c1.1 0.1 1.9 0.4 2.4 0.9 0.5 0.5 0.8 1.2 0.8 2.1v1.2c0 1-0.3 1.9-1 2.5 -0.7 0.6-1.5 0.9-2.6 0.9h-2.8c-1.5 0-2.6-0.2-3.2-0.8 -0.7-0.5-1-1.3-1-2.4C138 32.8 138 32.5 138 32.2z"/>
  <rect x="68.1" y="39.2" class="st1" width="81" height="1.2"/>
  <defs>
    <path id="SVGID_1_" d="M1.1 30.6c0-16.8 13.6-30.4 30.5-30.4C48.4 0.2 62 13.8 62 30.6c0 16.8-13.7 30.4-30.5 30.4C14.7 60.9 1.1 47.3 1.1 30.6L1.1 30.6z"/>
  </defs>
  <use xlink:href="#SVGID_1_" style="fill:#f8e000;overflow:visible"/>
  <clipPath id="SVGID_2_">
    <use xlink:href="#SVGID_1_" overflow="visible"/>
  </clipPath>
  <g class="st2">
    <path class="st0" d="M17.3 36.1c3.3-0.7 5.7-3.6 5.7-7.1 0-4-3.3-7.3-7.3-7.3 -4 0-7.3 3.3-7.3 7.3v11h2.9v-5c3 3.1 7.1 5 11.7 5v-2.6C21.1 37.4 19.1 36.9 17.3 36.1zM11.4 29c0-2.4 2-4.4 4.4-4.4 2.4 0 4.4 2 4.4 4.4 0 2.4-2 4.4-4.4 4.4C13.4 33.5 11.4 31.5 11.4 29z"/>
    <path class="st3" d="M32.7 21.8c-4 0-7.3 3.3-7.3 7.3v11h2.9v-5.2c1.2 0.9 2.7 1.5 4.4 1.5 4 0 7.3-3.3 7.3-7.3C40 25.1 36.7 21.8 32.7 21.8zM32.7 33.4c-2.4 0-4.3-1.9-4.3-4.3 0-2.4 1.9-4.3 4.3-4.3 2.4 0 4.3 1.9 4.3 4.3C37 31.4 35.1 33.4 32.7 33.4z"/>
    <path class="st3" d="M48.5 21.8c-4 0-7.3 3.3-7.3 7.3v11h2.9v-5.2c1.2 0.9 2.7 1.5 4.4 1.5 4 0 7.3-3.3 7.3-7.3C55.8 25.1 52.5 21.8 48.5 21.8zM48.5 33.4c-2.4 0-4.3-1.9-4.3-4.3 0-2.4 1.9-4.3 4.3-4.3 2.4 0 4.3 1.9 4.3 4.3C52.8 31.4 50.9 33.4 48.5 33.4z"/>
  </g>
</svg>
