<svg width="269" height="78" viewBox="0 0 269 78" fill="none" xmlns="http://www.w3.org/2000/svg">
<path fill-rule="evenodd" clip-rule="evenodd" d="M33.8055 33.2577C34.7099 34.9407 35.1608 35.9393 35.1608 36.2514H36.2597C36.2597 35.331 35.7139 34.2396 34.6237 32.977C34.2804 33.1634 34.0079 33.2577 33.8055 33.2577ZM31.072 26.9928L32.4514 29.9852C32.7928 29.7981 33.066 29.7045 33.2691 29.7045C33.2691 29.1584 32.8088 28.0682 31.8903 26.4313C31.3446 26.6178 31.072 26.8063 31.072 26.9928ZM27.8015 20.7045C28.8924 22.6061 29.4374 23.6114 29.4374 23.7197C29.7948 23.5332 30.0674 23.4403 30.2557 23.4403C30.2557 22.6763 29.71 21.5855 28.6191 20.1671C28.0741 20.3536 27.8015 20.5334 27.8015 20.7045ZM24.2732 14.4397C24.9752 16.0913 25.6058 17.0898 26.1663 17.4314C26.5243 17.2603 26.7969 17.1747 26.9846 17.1747C25.9879 15.336 25.3567 14.3307 25.0915 14.1589C24.7328 14.3461 24.4615 14.4397 24.2732 14.4397ZM22.6386 30.5226V31.3414C24.8189 30.8895 25.9098 30.5306 25.9098 30.2653C25.9098 29.891 25.6366 29.7045 25.0915 29.7045C23.4569 29.8141 22.6386 30.0868 22.6386 30.5226ZM20.1857 8.9695V9.78761C21.6339 10.0209 22.358 10.4814 22.358 11.1665H23.4569V10.8858C23.2378 10.0603 22.4208 9.33578 21.0027 8.71216C20.6453 8.88394 20.3728 8.9695 20.1857 8.9695ZM21.0027 19.8864L18.5498 25.6126H18.807C21.5324 25.255 23.1683 25.0765 23.7141 25.0765C22.2645 21.6162 21.3614 19.8864 21.0027 19.8864ZM17.1724 11.7046C16.2679 13.6529 15.8164 14.8367 15.8164 15.2578H16.9152C17.6313 13.3876 17.9887 12.3903 17.9887 12.266L17.1724 11.7046ZM15.5358 31.9015C15.7228 32.2444 15.8164 32.5178 15.8164 32.7196C16.1597 32.7196 17.2492 32.5331 19.0875 32.1582V31.0841C18.6988 31.0841 17.5137 31.3568 15.5358 31.9015ZM14.461 18.5309C13.9159 20.0889 13.644 21.1804 13.644 21.8034C13.8311 21.8034 14.1036 21.8969 14.461 22.0834C14.461 21.7566 14.8197 20.6658 15.5358 18.811L14.9987 18.5309H14.461ZM10.9113 28.0682H11.7276C12.4597 26.8063 12.8264 25.9013 12.8264 25.3559V25.0765H12.2653C11.3622 25.8559 10.9113 26.8518 10.9113 28.0682ZM8.99414 31.3414C8.8238 31.9329 8.37223 32.9375 7.64011 34.3572L8.45707 34.8932H8.73763C8.73763 34.6299 9.18852 33.5384 10.093 31.6221L8.99414 31.3414ZM6.00419 37.887C6.00419 38.2299 5.73165 39.2351 5.1859 40.9028L5.72364 41.1595H6.28475C6.28475 40.9883 6.55729 39.8975 7.10238 37.887H6.00419ZM21.2599 1.88583H22.0775C25.1776 1.88583 27.8169 5.43168 29.9986 12.5227C34.3586 22.4811 38.269 30.6623 41.7259 37.0682V39.2666C41.7259 41.5892 39.9036 43.2248 36.2597 44.1753C32.9885 44.1753 30.4421 41.354 28.6191 35.7134C18.0909 36.7574 12.8264 37.5748 12.8264 38.1677C10.6775 43.8096 8.40229 46.6296 6.00419 46.6296H4.65017C1.55001 45.7259 0.000259399 44.1753 0.000259399 41.9782V40.6221C0.000259399 39.703 2.99822 32.7905 8.99414 19.8864C13.4958 9.99014 16.2212 4.6296 17.1724 3.80346C18.5732 2.52549 19.9366 1.88583 21.2599 1.88583Z" fill="#294E9E"/>
<path fill-rule="evenodd" clip-rule="evenodd" d="M70.9535 15.7952V17.7121L70.6729 19.0676H71.7705V18.5309L72.051 15.7952H70.9535ZM68.4993 9.78761C69.029 10.6913 69.7531 11.6036 70.6729 12.5227H70.9535L71.4899 12.266C70.9441 11.097 70.1279 10.0917 69.037 9.25022C68.6783 9.31238 68.4993 9.49151 68.4993 9.78761ZM67.683 25.0765L68.4993 25.6126C69.7765 24.2263 70.4158 23.2291 70.4158 22.6215L69.8546 22.3408C69.6369 22.3408 68.9114 23.2525 67.683 25.0765ZM62.4954 6.25714V7.33326C63.1346 7.33326 64.1393 7.60597 65.5093 8.15071L65.7659 7.61399V7.07593L62.4954 6.25714ZM62.2382 26.9928H61.4206V28.0682H62.7759C62.9469 28.0682 63.671 27.8898 64.9482 27.5309V26.9928C64.9482 26.6178 64.7692 26.4313 64.4118 26.4313C63.7412 26.8063 63.0171 26.9928 62.2382 26.9928ZM55.1354 7.33326C55.3238 7.87867 55.5101 8.15071 55.6965 8.15071C57.3638 7.60597 58.3605 7.33326 58.6871 7.33326V6.25714C57.8 6.42892 56.615 6.78718 55.1354 7.33326ZM54.0619 21.5226C54.0619 22.0687 55.5101 22.3408 58.4066 22.3408C61.6931 22.3408 64.146 21.0715 65.7659 18.5309V17.1741C65.7659 14.9931 63.9516 13.536 60.323 12.8027H57.5896C55.3471 12.8027 54.1701 13.6215 54.0619 15.2578V21.5226ZM51.8649 9.53028C50.7126 10.9332 49.9885 11.9305 49.6926 12.5227L50.2303 12.8027H50.5102C50.7126 12.788 51.4367 11.8763 52.6825 10.0683L51.8649 9.53028ZM49.1548 37.6297L49.412 40.3413H50.5102L50.2303 37.0682H49.6926C49.3339 37.131 49.1548 37.3175 49.1548 37.6297ZM49.1548 33.5384H50.2296V29.9852H49.1548V33.5384ZM48.8743 26.4313H49.6926V23.1589H48.8743V26.4313ZM49.1548 16.0759V16.3566C48.9685 17.9614 48.8743 18.9593 48.8743 19.3484H49.9731V19.0676C50.1441 17.4635 50.2303 16.4656 50.2303 16.0759H49.1548ZM59.2242 1.60577C67.4325 1.60577 73.1572 5.61147 76.3963 13.6215C76.7697 14.9931 76.9574 16.263 76.9574 17.4314C76.9574 24.6781 72.5019 29.7747 63.5935 32.7196C61.7866 33.0785 60.1507 33.2577 58.6871 33.2577H55.1354C55.3238 36.609 55.416 38.6978 55.416 39.5239C55.416 41.487 54.5055 43.3959 52.6825 45.2507C51.3432 45.9833 50.2537 46.3489 49.412 46.3489C46.3433 46.3489 44.5296 44.5342 43.9692 40.9021C43.9692 40.0305 44.0627 39.1182 44.2491 38.1677C43.704 32.4937 43.2451 25.8559 42.8703 18.2502C42.8703 10.0062 45.3246 5.00323 50.2303 3.24201C53.5008 2.15119 56.4988 1.60577 59.2242 1.60577Z" fill="#294E9E"/>
<path fill-rule="evenodd" clip-rule="evenodd" d="M106.488 14.9773L106.745 16.8943V18.2498H107.843V17.9931L107.562 14.72H107.025L106.488 14.9773ZM106.207 21.5229C106.207 22.2241 105.756 23.2293 104.853 24.5387L105.669 25.0761H105.927C106.659 23.6257 107.025 22.5362 107.025 21.8036C106.838 21.8036 106.566 21.7094 106.207 21.5229ZM102.656 8.96977V10.0679C102.937 10.0679 103.575 10.7069 104.573 11.9849C105.304 11.7049 105.669 11.4321 105.669 11.1668C104.035 9.70167 103.124 8.96977 102.937 8.96977H102.656ZM102.399 35.9937V37.0685C102.852 37.0685 103.754 37.529 105.11 38.4481L105.669 37.3492L102.399 35.9937ZM99.1277 27.8112V28.3493L99.3849 28.886C101.317 28.1688 102.406 27.8112 102.656 27.8112V27.5305L102.12 26.7124C100.436 27.4442 99.4396 27.8112 99.1277 27.8112ZM96.3949 32.4392V32.9772L99.1277 35.1742L99.3849 34.0761C98.2019 32.9846 97.2052 32.4392 96.3949 32.4392ZM96.1144 6.51475V7.6136L99.3849 8.15099V7.07621C97.3916 6.7019 96.3021 6.51475 96.1144 6.51475ZM92.3068 28.886V29.9848L95.578 29.7041V28.6286H95.2974C93.6929 28.8011 92.6962 28.886 92.3068 28.886ZM89.3169 21.8036C89.3169 22.3491 90.7651 22.6218 93.6615 22.6218C96.948 22.6218 99.4009 21.3511 101.021 18.8106V17.4317C101.021 15.25 99.2065 13.8003 95.578 13.0838H92.8432C90.6007 13.0838 89.4251 13.9019 89.3169 15.5381V21.8036ZM89.0363 7.33287V8.43171C91.2166 8.07345 92.3068 7.70717 92.3068 7.33287V6.79548H92.0269C91.6989 6.79548 90.7023 6.97461 89.0363 7.33287ZM83.8487 36.8111C83.8487 37.529 84.037 38.7054 84.4098 40.341H85.4852C85.4852 40.0462 85.212 38.8685 84.667 36.8111H83.8487ZM83.3116 11.9849V12.5223C83.4993 12.5223 83.7705 12.6165 84.1292 12.803C84.1292 12.539 84.7685 11.7202 86.0457 10.3487V10.0679C86.0457 9.70969 85.858 9.53056 85.4852 9.53056C85.1419 9.59272 84.4178 10.4108 83.3116 11.9849ZM82.7752 29.9848V30.2655C82.7752 30.7013 82.9542 31.6993 83.3116 33.258H84.1292V32.9772C83.9428 31.3724 83.8487 30.3752 83.8487 29.9848H82.7752ZM82.2141 23.1592L82.4946 24.5387V26.4316H83.5921V26.1743C83.5921 23.9926 83.4051 22.9018 83.0324 22.9018C82.689 23.0736 82.4165 23.1592 82.2141 23.1592ZM82.4946 16.0762C82.2755 17.9457 82.0965 19.0372 81.9569 19.3486H83.0324C83.0324 18.8814 83.2187 17.7906 83.5921 16.0762H82.4946ZM94.4791 1.88611C102.687 1.88611 108.411 5.89181 111.651 13.9019C112.025 15.258 112.211 16.528 112.211 17.7124C112.211 23.2293 109.213 27.866 103.216 31.6217C107.484 34.0059 109.844 35.737 110.296 36.8111C110.653 38.1673 110.834 38.9861 110.834 39.2668C110.834 42.1022 109.019 43.824 105.39 44.4322C102.275 44.4322 97.4617 41.3462 90.9514 35.1742L90.3903 34.8935C90.5774 36.7029 90.6709 38.0657 90.6709 38.9861C90.6709 43.4898 88.6696 46.037 84.667 46.6292C81.5982 46.6292 79.7832 44.8072 79.2241 41.1597C79.2241 40.3035 79.3163 39.3985 79.504 38.4481C78.9589 32.7593 78.5 26.1195 78.1253 18.5305C78.1253 10.2865 80.5782 5.28357 85.4852 3.52234C88.7557 2.43152 91.7537 1.88611 94.4791 1.88611Z" fill="#294E9E"/>
<path fill-rule="evenodd" clip-rule="evenodd" d="M139.828 6.79533L139.547 7.33339V7.89417L142.818 8.15083H143.098V7.07605H141.182L139.828 6.79533ZM138.192 41.721V42.7965C138.737 42.7965 139.828 42.344 141.462 41.4403C141.276 40.8949 141.097 40.6215 140.925 40.6215L138.192 41.721ZM132.468 7.61411C132.654 7.97237 132.748 8.24508 132.748 8.43156L135.458 8.15083H136.019V7.07605H135.739C133.557 7.12217 132.468 7.30197 132.468 7.61411ZM131.112 43.0759V43.6139L131.369 44.1754C133.098 43.8018 134.189 43.6139 134.64 43.6139V42.5398C134.469 42.5398 133.293 42.7183 131.112 43.0759ZM130.295 24.5386H133.823V23.4397H130.295V24.5386ZM125.646 9.25035V9.78774C126.081 9.78774 127.265 9.51503 129.195 8.96962C129.009 8.62673 128.917 8.35403 128.917 8.15083H128.66C126.65 8.43156 125.646 8.79784 125.646 9.25035ZM124.29 43.0759C124.29 43.4823 124.196 43.8479 124.01 44.1754L126.743 44.4327H127.561V43.8947C127.561 43.5371 126.47 43.2644 124.29 43.0759ZM123.472 24.5386C123.472 24.8962 123.744 25.0766 124.29 25.0766L126.743 24.7959V23.7198C126.478 23.7198 125.388 23.9925 123.472 24.5386ZM122.118 11.4474C121.198 13.1311 120.738 14.2212 120.738 14.7198H121.837C121.837 14.2526 122.289 13.3409 123.191 11.9854L122.375 11.4474H122.118ZM119.665 17.993C119.12 20.0503 118.847 21.2273 118.847 21.5228H119.921C119.921 21.0241 120.193 19.9333 120.738 18.2503C120.334 18.2503 119.976 18.1647 119.665 17.993ZM118.286 39.524C118.831 40.6763 119.649 41.6816 120.738 42.5398C120.738 42.243 120.927 41.8761 121.3 41.4403C121.113 41.4403 120.38 40.7158 119.104 39.2667H118.847L118.286 39.524ZM117.749 28.8858L118.286 29.1665C118.473 29.1665 119.204 28.3491 120.481 26.7122C120.295 26.3546 120.201 26.0812 120.201 25.8934C118.566 26.9221 117.749 27.9193 117.749 28.8858ZM116.932 32.439V35.9942H118.029V35.7135L117.749 33.2578C117.935 32.9002 118.029 32.6268 118.029 32.439H116.932ZM138.192 2.70474H142C145.099 3.6552 146.649 5.19786 146.649 7.33339V8.96962C145.699 12.071 144.149 13.6217 142 13.6217H139.009C130.286 13.6217 125.925 14.3462 125.925 15.7953L125.108 18.8111H125.388C130.341 18.4368 133.698 18.2503 135.458 18.2503C138.496 18.2503 140.318 20.1592 140.925 23.9771C140.925 27.6232 138.285 29.4473 133.006 29.4473C131.245 29.4473 128.34 29.6271 124.29 29.9847C124.29 30.0943 124.563 32.0968 125.108 35.9942C134.235 34.7149 139.594 34.0759 141.182 34.0759C143.689 34.0759 145.325 35.9862 146.089 39.8034C145.544 43.4348 143.183 45.2508 139.009 45.2508C134.32 45.7969 128.962 46.5275 122.935 47.4479C118.388 47.4479 115.474 44.1754 114.198 37.6298C113.653 34.7149 113.38 31.8007 113.38 28.8858C113.38 15.0627 116.292 6.88155 122.118 4.34098C125.169 3.25015 130.529 2.70474 138.192 2.70474Z" fill="#294E9E"/>
<path fill-rule="evenodd" clip-rule="evenodd" d="M180.502 30.5227C180.502 30.6323 180.416 31.8167 180.245 34.0759H181.319V30.5227H180.502ZM180.245 37.6298L179.965 40.3408V40.6215H181.062V40.3408L181.319 37.6298H180.245ZM179.965 23.7198L180.245 26.9929H181.319C181.319 26.0739 181.14 24.9824 180.783 23.7198H179.965ZM179.428 20.1673H180.502V16.6141H179.428V20.1673ZM179.965 9.5304C179.606 10.9955 179.428 11.9072 179.428 12.2661V13.0836H180.502V12.8029C180.502 12.5074 180.595 11.4159 180.783 9.5304H179.965ZM175.339 37.8871C175.339 38.2614 175.152 38.4479 174.778 38.4479C174.778 39.3516 175.595 40.0761 177.232 40.6215L177.512 40.0841L175.339 37.8871ZM170.689 32.439V32.7197C171.779 34.2156 172.325 35.1206 172.325 35.4314H172.885C173.245 35.4314 173.423 35.2523 173.423 34.8934C172.285 33.0713 171.647 32.1583 171.508 32.1583C171.164 32.3468 170.892 32.439 170.689 32.439ZM166.601 26.7122C166.742 27.1948 167.472 28.1078 168.797 29.4473C169.14 29.2601 169.412 29.1665 169.615 29.1665C168.432 27.3438 167.7 26.4315 167.419 26.4315C167.076 26.6179 166.803 26.7122 166.601 26.7122ZM162.512 20.9847V21.5228C163.571 23.159 164.209 23.9771 164.429 23.9771C164.786 23.806 165.059 23.7198 165.245 23.7198L163.33 20.7046C162.987 20.8918 162.714 20.9847 162.512 20.9847ZM158.424 15.7953C159.39 17.4168 160.028 18.2343 160.34 18.2503C160.698 18.0785 160.97 17.993 161.158 17.993C160.067 16.4349 159.522 15.5232 159.522 15.2579H158.984C158.611 15.32 158.424 15.4992 158.424 15.7953ZM154.897 15.7953C153.977 17.2918 153.518 18.2971 153.518 18.8111H154.336C154.507 18.8111 155.052 17.8994 155.97 16.076V15.7953H154.897ZM152.443 22.3409L152.163 25.6127H152.98C153.339 24.1796 153.518 23.0888 153.518 22.3409H152.443ZM151.883 36.2509L152.163 39.524H153.261V39.2667C153.074 37.6451 152.98 36.6399 152.98 36.2509H151.883ZM151.883 29.1665L151.626 30.5227V32.7197H152.7V29.7039C152.7 29.3463 152.521 29.1665 152.163 29.1665H151.883ZM180.783 4.06024C184.427 4.90175 186.25 6.63156 186.25 9.25034V23.4397C186.25 33.725 185.151 40.1777 182.955 42.7965C181.101 44.6192 179.38 45.5315 177.792 45.5315H176.156C172.558 45.5315 169.1 41.713 165.783 34.0759C162.653 29.0268 160.293 25.6601 158.704 23.9771V24.2578C158.704 25.2083 158.611 26.751 158.424 28.8858C158.424 29.7587 158.696 33.9429 159.241 41.4403C159.241 43.8098 157.607 45.3517 154.336 46.0696H153.518C149.888 46.0696 148.075 42.6167 148.075 35.7135C147.888 35.7135 147.794 33.8974 147.794 30.2654V27.2502C147.794 17.3232 149.702 11.5957 153.518 10.0678C154.561 9.52304 155.745 9.15609 157.069 8.96961C160.713 8.96961 164.802 12.6084 169.334 19.8865C171.858 23.3615 173.765 26.3606 175.058 28.8858H175.339C175.339 26.9067 175.424 25.092 175.595 23.4397C175.237 18.0164 175.058 13.2868 175.058 9.25034C175.947 5.9772 177.581 4.34097 179.965 4.34097C180.167 4.34097 180.44 4.24672 180.783 4.06024Z" fill="#294E9E"/>
<mask id="mask0" mask-type="alpha" maskUnits="userSpaceOnUse" x="187" y="0" width="38" height="47">
<path d="M187.393 0.25H224.752V46.0695H187.393V0.25Z" fill="white"/>
</mask>
<g mask="url(#mask0)">
<path fill-rule="evenodd" clip-rule="evenodd" d="M218.467 22.3406L218.748 23.7195V24.2575L218.467 25.613C218.887 25.613 219.253 25.7066 219.565 25.8931L219.845 24.2575C219.658 23.2603 219.565 22.5357 219.565 22.0832H219.028L218.467 22.3406ZM217.929 29.1662C217.743 30.2577 217.376 31.2549 216.831 32.158L217.929 32.7194C218.661 30.5698 219.028 29.3854 219.028 29.1662H217.929ZM216.574 15.7949C217.477 17.4786 217.929 18.4832 217.929 18.8108H218.21C218.567 18.8108 218.748 18.6236 218.748 18.25C218.748 17.6264 218.295 16.6291 217.392 15.2576C216.847 15.4447 216.574 15.6238 216.574 15.7949ZM213.023 9.53007L212.744 10.0681C214.098 11.7044 214.83 12.5225 214.939 12.5225C215.297 12.5225 215.476 12.3434 215.476 11.9851C214.714 10.3489 213.895 9.53007 213.023 9.53007ZM214.659 34.893L212.206 37.068C212.392 37.4269 212.487 37.6996 212.487 37.8868C213.872 37.2324 214.869 36.4143 215.476 35.4311L214.659 34.893ZM207.018 5.97755L206.761 6.51427V6.79499C206.855 6.79499 207.945 7.16127 210.032 7.89384C210.032 7.69131 210.119 7.41861 210.29 7.07572C209.044 6.34316 207.954 5.97755 207.018 5.97755ZM205.664 38.9856V39.8031H206.481C206.84 39.8031 207.75 39.6239 209.215 39.2663C209.028 38.9388 208.935 38.5732 208.935 38.1675L205.664 38.9856ZM199.66 6.2576L199.939 6.79499L202.674 6.51427H203.21V5.43949H202.674C200.665 5.43949 199.66 5.71219 199.66 6.2576ZM198.842 39.8031V40.0838C199.028 40.4274 199.123 40.7001 199.123 40.9026H202.394V40.3411C202.394 39.9835 202.213 39.8031 201.856 39.8031H198.842ZM198.585 18.5307C198.585 19.9798 198.67 25.2548 198.842 34.357C199.823 34.7146 201.101 34.893 202.674 34.893C207.377 34.893 210.827 32.3464 213.023 27.2499C213.382 25.9873 213.56 24.8958 213.56 23.9768V22.6213C213.56 17.4004 210.835 13.7617 205.384 11.7044C204.402 11.5333 203.585 11.447 202.931 11.447H202.113C199.932 11.447 198.842 12.7177 198.842 15.2576C198.67 16.1926 198.585 17.2841 198.585 18.5307ZM194.216 10.8856C194.403 10.8856 194.675 10.9798 195.034 11.1663C195.719 9.53007 196.358 8.71195 196.949 8.71195C196.576 8.26079 196.389 7.89384 196.389 7.61378C194.94 8.76676 194.216 9.85758 194.216 10.8856ZM192.862 35.4311L193.119 38.7049H194.216L193.935 38.1675V35.4311H192.862ZM192.3 28.3488V30.5224L192.581 31.9013H193.399V28.3488H192.3ZM192.3 24.7956H193.399V21.2658H192.3V24.7956ZM193.119 14.1587C192.946 14.6266 192.674 15.8103 192.3 17.7119H193.399C193.757 15.9821 193.935 14.8913 193.935 14.4394C193.749 14.4394 193.476 14.3459 193.119 14.1587ZM202.674 0.24939C210.227 0.24939 216.496 3.88881 221.481 11.1663C223.661 15.7174 224.752 19.8087 224.752 23.4401C224.752 32.3852 220.296 39.2978 211.388 44.175C208.117 45.4376 204.94 46.0693 201.856 46.0693C198.679 45.8968 196.676 45.6241 195.852 45.2505C195.26 45.6241 194.714 45.812 194.216 45.812H192.3C189.216 45.2665 187.674 42.9913 187.674 38.9856C187.674 34.0602 187.581 26.875 187.393 17.4312C187.393 5.97754 192.487 0.24939 202.674 0.24939Z" fill="#294E9E"/>
</g>
<path fill-rule="evenodd" clip-rule="evenodd" d="M262.996 26.1742H264.07L264.351 23.4398C264.351 23.0816 264.171 22.9018 263.814 22.9018C263.439 22.9018 263.167 23.9926 262.996 26.1742ZM262.177 29.704C262.177 29.8912 261.632 30.8035 260.543 32.4391L261.618 32.9772C262.707 30.998 263.253 29.9065 263.253 29.704H262.177ZM260.8 16.3568L260.262 17.1743C261.228 18.9823 261.773 19.8866 261.898 19.8866C262.443 19.7148 262.715 19.5357 262.715 19.3486C261.75 17.3694 261.112 16.3722 260.8 16.3568ZM255.893 36.5304V37.0684C255.956 37.4427 256.142 37.6299 256.454 37.6299C258.059 36.6634 258.875 36.025 258.908 35.7129V35.4315L258.628 34.8934C257.085 35.9863 256.173 36.5304 255.893 36.5304ZM255.637 11.4474L255.356 12.5222C255.544 12.5222 256.454 13.1619 258.09 14.4392L258.628 13.6217C256.866 12.172 255.871 11.4474 255.637 11.4474ZM249.353 38.986V39.5241L249.632 40.0842L252.903 39.2668C252.716 38.9393 252.624 38.5736 252.624 38.1673C251.081 38.7133 249.99 38.986 249.353 38.986ZM245.264 10.0679C245.544 10.8011 245.816 11.1667 246.082 11.1667C247.156 10.6213 248.067 10.3486 248.815 10.3486V9.25043L245.264 10.0679ZM242.811 38.1673L242.554 38.7053V39.2668C243.223 39.4379 244.314 39.5241 245.825 39.5241L246.082 38.986L242.811 38.1673ZM239.283 13.9018C239.641 14.3383 239.82 14.6965 239.82 14.9772C240.863 14.1204 241.86 13.4887 242.811 13.0837C242.639 12.7254 242.554 12.4527 242.554 12.2656C242.054 12.2656 240.965 12.8116 239.283 13.9018ZM252.716 15.9591C249.133 14.7433 245.863 15.3823 242.904 17.8761C239.945 20.3692 238.465 23.5882 238.465 27.5304V28.3492C238.465 31.3723 240.918 33.187 245.825 33.7953H248.278C254.819 32.9538 258.09 29.8671 258.09 24.5387C258.09 20.0343 256.299 17.1743 252.716 15.9591ZM236.012 35.9936C236.884 36.6794 237.88 37.311 239.003 37.8865L239.54 36.8111C238.933 36.8111 238.029 36.267 236.829 35.1742C236.564 35.1742 236.293 35.4469 236.012 35.9936ZM234.633 19.3486V19.6293H235.452C235.669 19.6293 236.307 18.8105 237.367 17.1743C237.367 16.8006 237.188 16.6135 236.829 16.6135C236.362 16.7853 235.63 17.697 234.633 19.3486ZM232.461 29.9847C233.006 31.9799 233.55 32.9772 234.096 32.9772C234.158 32.6196 234.337 32.4391 234.633 32.4391C233.917 31.2079 233.558 30.2107 233.558 29.4467C232.826 29.5877 232.461 29.7668 232.461 29.9847ZM232.999 22.6217L232.18 26.1742C232.601 26.1742 232.967 26.2604 233.279 26.4316C233.279 25.6522 233.55 24.4758 234.096 22.9018C233.691 22.9018 233.325 22.8088 232.999 22.6217ZM251.489 4.06033C257.775 4.06033 263.151 8.33807 267.622 16.8942C268.541 19.4034 269 21.8584 269 24.2579V25.3554C269 31.512 265.994 36.781 259.982 41.1597C256.244 43.5291 252.249 44.7129 247.997 44.7129H246.082C237.983 44.7129 232.172 41.2613 228.653 34.3567C227.921 32.3776 227.462 30.1953 227.273 27.8111C227.273 20.3772 229.74 14.5602 234.669 10.3606C239.598 6.16043 245.205 4.06033 251.489 4.06033Z" fill="#294E9E"/>
<mask id="mask1" mask-type="alpha" maskUnits="userSpaceOnUse" x="112" y="53" width="23" height="25">
<path d="M112.645 53.9754H134.725V77.548H112.645V53.9754Z" fill="white"/>
</mask>
<g mask="url(#mask1)">
<path fill-rule="evenodd" clip-rule="evenodd" d="M128.603 63.9452C128.224 61.0717 126.534 59.1294 123.832 59.1294C121.173 59.1294 119.442 61.0303 118.936 63.9452H128.603ZM124.466 77.5484C117.669 77.5484 112.645 72.774 112.645 65.8461V65.7612C112.645 59.2978 117.246 53.9754 123.832 53.9754C131.39 53.9754 134.725 60.1854 134.725 64.8749C134.725 66.7337 133.416 67.9582 131.728 67.9582H119.019C119.653 70.8731 121.679 72.3943 124.55 72.3943C126.323 72.3943 127.801 71.8443 129.109 70.8731C129.574 70.5349 129.997 70.3651 130.673 70.3651C132.107 70.3651 133.163 71.4646 133.163 72.9003C133.163 73.7452 132.783 74.3795 132.318 74.8012C130.335 76.4916 127.759 77.5484 124.466 77.5484Z" fill="#FDC500"/>
</g>
<path fill-rule="evenodd" clip-rule="evenodd" d="M139.62 57.3552C139.62 55.5812 141.055 54.1435 142.829 54.1435C144.601 54.1435 146.036 55.5812 146.036 57.3552V57.6085C147.515 55.7076 149.414 53.9751 152.666 53.9751C157.521 53.9751 160.349 57.1854 160.349 62.3822V74.0831C160.349 75.8577 158.914 77.2934 157.14 77.2934C155.368 77.2934 153.931 75.8577 153.931 74.0831V64.4101C153.931 61.3682 152.496 59.8055 150.047 59.8055C147.598 59.8055 146.036 61.3682 146.036 64.4101V74.0831C146.036 75.8577 144.601 77.2934 142.829 77.2934C141.055 77.2934 139.62 75.8577 139.62 74.0831V57.3552Z" fill="#FDC500"/>
<mask id="mask2" mask-type="alpha" maskUnits="userSpaceOnUse" x="177" y="53" width="22" height="25">
<path d="M177.485 53.9752H198.214V77.548H177.485V53.9752Z" fill="white"/>
</mask>
<g mask="url(#mask2)">
<path fill-rule="evenodd" clip-rule="evenodd" d="M177.485 65.8459V65.761C177.485 59.2976 182.424 53.9752 189.348 53.9752C192.768 53.9752 195.174 54.9049 197.074 56.5104C197.497 56.8473 198.088 57.6086 198.088 58.7061C198.088 60.3122 196.778 61.5795 195.174 61.5795C194.331 61.5795 193.696 61.2413 193.317 60.9452C192.176 60.0589 190.995 59.5095 189.306 59.5095C186.098 59.5095 183.817 62.3395 183.817 65.6774V65.761C183.817 69.226 186.055 72.0132 189.559 72.0132C191.248 72.0132 192.557 71.4216 193.781 70.4505C194.119 70.1971 194.752 69.8589 195.512 69.8589C197.033 69.8589 198.214 71.0848 198.214 72.6054C198.214 73.4502 197.834 74.1253 197.286 74.6326C195.386 76.3638 192.979 77.5482 189.263 77.5482C182.467 77.5482 177.485 72.3093 177.485 65.8459Z" fill="#FDC500"/>
</g>
<path fill-rule="evenodd" clip-rule="evenodd" d="M216.07 69.056V67.9164C214.972 67.4084 213.537 67.0702 211.975 67.0702C209.231 67.0702 207.541 68.1697 207.541 70.197V70.2819C207.541 72.013 208.977 73.027 211.046 73.027C214.043 73.027 216.07 71.3801 216.07 69.056ZM201.335 70.5352V70.4503C201.335 65.5075 205.093 63.227 210.455 63.227C212.734 63.227 214.381 63.6073 215.986 64.1567V63.7757C215.986 61.1148 214.339 59.6357 211.131 59.6357C209.358 59.6357 207.922 59.889 206.698 60.27C206.318 60.397 206.065 60.4384 205.769 60.4384C204.29 60.4384 203.109 59.2975 203.109 57.8196C203.109 56.6787 203.827 55.7075 204.84 55.3278C206.866 54.5665 209.062 54.1434 212.06 54.1434C215.563 54.1434 218.096 55.0732 219.701 56.6787C221.39 58.3684 222.149 60.8615 222.149 63.902V74.21C222.149 75.9425 220.757 77.2934 219.026 77.2934C217.168 77.2934 215.943 75.984 215.943 74.6331V74.5897C214.381 76.3222 212.228 77.4631 209.103 77.4631C204.84 77.4631 201.335 75.0128 201.335 70.5352Z" fill="#FDC500"/>
<path fill-rule="evenodd" clip-rule="evenodd" d="M227.087 74.8862C226.411 74.4631 225.862 73.7031 225.862 72.6892C225.862 71.2528 226.96 70.1553 228.396 70.1553C228.86 70.1553 229.325 70.2816 229.662 70.4935C231.815 71.8443 233.968 72.5207 235.784 72.5207C237.642 72.5207 238.486 71.8443 238.486 70.8304V70.7468C238.486 69.3525 236.29 68.8873 233.8 68.1267C230.634 67.1983 227.044 65.7191 227.044 61.3264V61.2416C227.044 56.637 230.76 54.0603 235.319 54.0603C237.684 54.0603 240.132 54.6933 242.327 55.7915C243.256 56.256 243.847 57.1022 243.847 58.1997C243.847 59.6361 242.708 60.7349 241.271 60.7349C240.807 60.7349 240.512 60.65 240.09 60.4388C238.275 59.5512 236.543 59.0024 235.193 59.0024C233.63 59.0024 232.828 59.6788 232.828 60.5651V60.65C232.828 61.918 234.981 62.5088 237.43 63.3537C240.597 64.4097 244.27 65.931 244.27 70.0704V70.1553C244.27 75.181 240.512 77.4629 235.615 77.4629C232.828 77.4629 229.831 76.6601 227.087 74.8862Z" fill="#FDC500"/>
<path fill-rule="evenodd" clip-rule="evenodd" d="M262.253 69.056V67.9164C261.154 67.4084 259.72 67.0702 258.158 67.0702C255.413 67.0702 253.724 68.1697 253.724 70.197V70.2819C253.724 72.013 255.16 73.027 257.229 73.027C260.226 73.027 262.253 71.3801 262.253 69.056ZM247.518 70.5352V70.4503C247.518 65.5075 251.276 63.227 256.638 63.227C258.917 63.227 260.564 63.6073 262.168 64.1567V63.7757C262.168 61.1148 260.522 59.6357 257.314 59.6357C255.539 59.6357 254.104 59.889 252.881 60.27C252.501 60.397 252.247 60.4384 251.951 60.4384C250.473 60.4384 249.292 59.2975 249.292 57.8196C249.292 56.6787 250.009 55.7075 251.023 55.3278C253.049 54.5665 255.245 54.1434 258.241 54.1434C261.746 54.1434 264.279 55.0732 265.885 56.6787C267.573 58.3684 268.332 60.8615 268.332 63.902V74.21C268.332 75.9425 266.94 77.2934 265.209 77.2934C263.351 77.2934 262.127 75.984 262.127 74.6331V74.5897C260.564 76.3222 258.411 77.4631 255.286 77.4631C251.023 77.4631 247.518 75.0128 247.518 70.5352Z" fill="#FDC500"/>
<path fill-rule="evenodd" clip-rule="evenodd" d="M60.627 65.5097L63.641 68.4774L66.6075 65.4616L63.5935 62.4933L60.627 65.5097ZM63.6523 70.8984C63.3985 70.8984 63.1453 70.8021 62.9496 70.6103L58.5074 66.2356C58.1127 65.8473 58.108 65.2123 58.4961 64.818L62.8674 60.3724C63.2569 59.9774 63.8901 59.9734 64.2849 60.3611L68.7271 64.7357C69.1219 65.1241 69.1272 65.759 68.7391 66.1534L64.3671 70.5982C64.1707 70.7981 63.9115 70.8984 63.6523 70.8984Z" fill="#EF5035"/>
<path fill-rule="evenodd" clip-rule="evenodd" d="M89.7314 67.9124H94.2884L92.8863 64.0551L89.7314 67.9124ZM95.7186 69.9176H87.6165C87.2297 69.9176 86.877 69.6944 86.7114 69.3448C86.5457 68.9939 86.5965 68.5801 86.841 68.28L92.4501 61.421C92.6779 61.1422 93.0379 61.0045 93.3933 61.068C93.7487 61.1282 94.0439 61.3748 94.1675 61.7137L96.6605 68.5721C96.7727 68.8796 96.7273 69.2225 96.5396 69.4898C96.3519 69.7585 96.0459 69.9176 95.7186 69.9176Z" fill="#2C519F"/>
<path fill-rule="evenodd" clip-rule="evenodd" d="M35.5668 62.1175C33.7111 62.1175 32.2007 63.6287 32.2007 65.4855C32.2007 67.3423 33.7111 68.8536 35.5668 68.8536C37.4224 68.8536 38.9328 67.3423 38.9328 65.4855C38.9328 63.6287 37.4224 62.1175 35.5668 62.1175ZM35.5668 70.8588C32.6055 70.8588 30.1967 68.4485 30.1967 65.4855C30.1967 62.5225 32.6055 60.1123 35.5668 60.1123C38.528 60.1123 40.9368 62.5225 40.9368 65.4855C40.9368 68.4485 38.528 70.8588 35.5668 70.8588Z" fill="#7669DB"/>
<mask id="mask3" mask-type="alpha" maskUnits="userSpaceOnUse" x="0" y="0" width="269" height="78">
<path d="M0 77.548H269V0.25H0V77.548Z" fill="white"/>
</mask>
<g mask="url(#mask3)">
<path fill-rule="evenodd" clip-rule="evenodd" d="M4.49695 68.1604H10.5363V62.1174H4.49695V68.1604ZM11.5383 70.1656H3.49496C2.94186 70.1656 2.49297 69.7164 2.49297 69.163V61.1148C2.49297 60.5614 2.94186 60.1122 3.49496 60.1122H11.5383C12.092 60.1122 12.5403 60.5614 12.5403 61.1148V69.163C12.5403 69.7164 12.092 70.1656 11.5383 70.1656Z" fill="#5BC94F"/>
</g>
</svg>
