<?xml version="1.0" encoding="utf-8"?>
<svg width="103" height="45" viewBox="0 0 103 45" fill="none" xmlns="http://www.w3.org/2000/svg">
<g clip-path="url(#clip0)">
<path d="M27.2001 12.8999H30.9001L15.3001 44.7999L0.100098 12.8999H7.5001L17.3001 32.8999L27.2001 12.8999Z" fill="white"/>
<path d="M33.9001 4.3999C33.9001 3.2999 34.3001 2.3999 35.1001 1.5999C35.9001 0.799902 36.8001 0.399902 37.9001 0.399902C39.1001 0.399902 40.0001 0.799902 40.9001 1.5999C41.7001 2.3999 42.1001 3.2999 42.1001 4.3999C42.1001 5.4999 41.7001 6.3999 40.9001 7.1999C40.1001 7.9999 39.1001 8.3999 37.9001 8.3999C36.8001 8.3999 35.9001 7.9999 35.1001 7.1999C34.3001 6.4999 33.9001 5.4999 33.9001 4.3999ZM34.3001 44.5999V12.8999H41.7001V44.5999H34.3001Z" fill="white"/>
<path d="M46 14.9999V12.8999H50V6.9999L57.3 3.3999V12.8999H63.8V14.9999H57.4V31.7999C57.4 34.7999 57.5 36.7999 57.7 37.7999C57.9 38.7999 58.5 39.7999 59.4 40.7999C60.3 41.7999 61.5 42.2999 62.9 42.4999V44.6999C60.1 44.6999 57.2 43.7999 54.3 42.0999C51.4 40.3999 49.9 37.3999 49.9 33.1999V14.9999H46Z" fill="white"/>
<path d="M91.8 44.5999H84.4V42.8999C83.4 43.4999 82.4 43.9999 81.3 44.1999C80.2 44.3999 78.4 44.4999 75.9 44.4999C74.3 44.4999 72.9 44.2999 71.5 43.7999C70.1 43.2999 69 42.5999 68 41.7999C67 40.9999 66.2 39.9999 65.7 38.7999C65.1 37.6999 64.8 36.4999 64.8 35.1999C64.8 33.8999 65.1 32.6999 65.7 31.4999C66.3 30.2999 67.1 29.2999 68 28.4999C69 27.6999 70.2 26.9999 71.5 26.4999C72.9 25.9999 74.3 25.7999 75.9 25.7999C78.3 25.7999 80.1 25.9999 81.3 26.2999C82.4 26.5999 83.5 27.0999 84.5 27.6999V25.9999C84.5 25.0999 84.4 24.0999 84.3 22.7999C84.2 21.5999 83.8 20.2999 83.3 19.1999C82.7 17.9999 81.9 17.0999 80.9 16.1999C79.9 15.3999 78.5 14.9999 76.7 14.9999C75.4 14.9999 74 15.2999 72.7 15.8999C71.4 16.4999 70.2 17.2999 69 18.2999V16.0999C69.9 15.4999 71.3 14.7999 73.1 13.9999C74.9 13.1999 77.1 12.8999 79.8 12.8999C83.4 12.8999 86.3 13.9999 88.6 16.1999C90.8 18.3999 92 21.2999 92 24.6999V44.5999H91.8ZM84.4 29.1999C83.1 28.2999 81.4 27.8999 79.3 27.8999C77.4 27.8999 75.7 28.5999 74.3 29.9999C72.9 31.3999 72.2 33.0999 72.2 35.0999C72.2 37.0999 73 38.7999 74.5 40.0999C76 41.3999 77.8 42.0999 79.8 42.0999C81.3 42.0999 82.8 41.7999 84.4 41.0999V29.1999Z" fill="white"/>
<path d="M103 44.5999H95.6001V0.199951H103V44.5999Z" fill="white"/>
</g>
<defs>
<clipPath id="clip0">
<rect width="103" height="45" fill="white"/>
</clipPath>
</defs>
</svg>
