<?xml version="1.0" encoding="utf-8"?>
<!-- Generator: Adobe Illustrator 22.1.0, SVG Export Plug-In . SVG Version: 6.00 Build 0)  -->
<svg version="1.1" id="Capa_1" xmlns="http://www.w3.org/2000/svg" xmlns:xlink="http://www.w3.org/1999/xlink" x="0px" y="0px"
	 viewBox="0 0 487.9 240.1" style="enable-background:new 0 0 487.9 240.1;" xml:space="preserve">
<style type="text/css">
	.st0{fill:#1C1C1B;}
	.st1{fill:#FFDC00;}
</style>
<g>
	<g>
		<path class="st0" d="M268.9,86.4H291c11.5,0,19.2,8.6,19.2,22.1s-7.7,22.1-19.2,22.1h-13.4v25.9h-8.6V86.4z M290,122
			c7.7,0,11.5-5.8,11.5-13.4s-4.8-13.4-11.5-13.4h-12.5V122L290,122z"/>
		<path class="st0" d="M316,86.4h8.6v54.7c0,5.8,1.9,7.7,4.8,7.7c1,0,1.9,0,1.9,0v8.6c0,0-1,0-2.9,0c-4.8,0-11.5-1.9-11.5-14.4V86.4
			H316z"/>
		<path class="st0" d="M359.2,124.9h1.9v-1c0-8.6-3.8-11.5-9.6-11.5c-6.7,0-12.5,4.8-12.5,4.8l-3.8-6.7c0,0,6.7-5.8,16.3-5.8
			c10.6,0,17.3,6.7,17.3,20.2v31.7h-7.7v-4.8c0-1.9,0-3.8,0-3.8l0,0c0,0-3.8,9.6-14.4,9.6c-7.7,0-14.4-5.8-14.4-15.4
			C332.3,125.8,351.5,124.9,359.2,124.9z M349.6,149.8c6.7,0,11.5-8.6,11.5-16.3v-1.9h-1.9c-6.7,0-17.3,1-17.3,9.6
			C340.9,146,343.8,149.8,349.6,149.8z"/>
		<path class="st0" d="M375.5,167.1c0,0,2.9,1.9,4.8,1.9c3.8,0,5.8-2.9,7.7-7.7l1.9-5.8l-17.3-49.9h9.6l10.6,33.6
			c1,2.9,1.9,5.8,1.9,5.8l0,0c0,0,1-3.8,1.9-5.8l10.6-33.6h8.6l-20.2,59.5c-2.9,7.7-7.7,11.5-14.4,11.5c-4.8,0-8.6-2.9-8.6-2.9
			L375.5,167.1z"/>
		<path class="st0" d="M438.9,104.7c12.5,0,19.2,10.6,19.2,24c0,1,0,3.8,0,3.8h-31.7c0,11.5,7.7,16.3,15.4,16.3s12.5-5.8,12.5-5.8
			l3.8,6.7c0,0-6.7,7.7-17.3,7.7c-13.4,0-23-11.5-23-26.9C416.8,115.2,426.4,104.7,438.9,104.7z M448.5,125.8
			c0-8.6-4.8-12.5-10.6-12.5c-6.7,0-11.5,4.8-12.5,12.5H448.5z"/>
		<path class="st0" d="M464.8,105.6h7.7v9.6c0,1.9,0,3.8,0,3.8l0,0c1.9-7.7,6.7-13.4,13.4-13.4c1,0,1.9,0,1.9,0v9.6c0,0-1,0-2.9,0
			c-5.8,0-10.6,4.8-12.5,11.5c-1,2.9-1,5.8-1,8.6v21.1h-8.6v-50.9H464.8z"/>
	</g>
	<g>
		<path class="st1" d="M0,120.1C0,53.8,53.8,0,121,0c66.3,0,121,53.8,121,120.1s-53.8,120.1-121,120.1S0,186.3,0,120.1"/>
		<path class="st0" d="M62.4,142.1c12.5-2.9,23-14.4,23-27.9C85.5,98,73,85.5,56.7,85.5S27.9,98,27.9,114.3v43.2h10.6v-20.2
			c11.5,12.5,27.9,20.2,46.1,20.2v-10.6C76.8,146.9,69.1,145,62.4,142.1 M38.4,114.3c0-9.6,7.7-17.3,17.3-17.3S73,104.7,73,114.3
			s-7.7,17.3-17.3,17.3S38.4,123.9,38.4,114.3"/>
		<path class="st0" d="M122.9,85.5c-16.3,0-28.8,12.5-28.8,28.8v43.2h11.5v-20.2c4.8,3.8,10.6,5.8,17.3,5.8
			c16.3,0,28.8-12.5,28.8-28.8S138.3,85.5,122.9,85.5 M122.9,131.6c-9.6,0-17.3-7.7-17.3-17.3S113.3,97,122.9,97s17.3,7.7,17.3,17.3
			S132.5,131.6,122.9,131.6"/>
		<path class="st0" d="M185.4,85.5c-16.3,0-28.8,12.5-28.8,28.8v43.2h11.5v-20.2c4.8,3.8,10.6,5.8,17.3,5.8
			c16.3,0,28.8-12.5,28.8-28.8S200.7,85.5,185.4,85.5 M185.4,131.6c-9.6,0-17.3-7.7-17.3-17.3S175.8,97,185.4,97s17.3,7.7,17.3,17.3
			C202.6,123.9,195,131.6,185.4,131.6"/>
	</g>
</g>
</svg>
