<svg width="47" height="47" viewBox="0 0 47 47" fill="none" xmlns="http://www.w3.org/2000/svg">
<path d="M40.117 6.88293C35.6784 2.44446 29.7771 0 23.5 0C17.2228 0 11.3214 2.44446 6.88293 6.88293C2.44437 11.3215 0 17.2229 0 23.5C0 29.7771 2.44437 35.6784 6.88293 40.117C11.3215 44.5555 17.2228 47 23.5 47C29.7771 47 35.6784 44.5555 40.117 40.117C44.5555 35.6784 47 29.7771 47 23.5C47 17.2229 44.5555 11.3216 40.117 6.88293ZM23.5 44.2461C12.0605 44.2461 2.75391 34.9395 2.75391 23.5C2.75391 12.0605 12.0605 2.75391 23.5 2.75391C34.9395 2.75391 44.2461 12.0605 44.2461 23.5C44.2461 34.9395 34.9395 44.2461 23.5 44.2461Z" fill="#25D366"/>
<path d="M34.7272 15.9597C34.1895 15.4221 33.3176 15.4221 32.78 15.9598L20.6207 28.1191L14.2199 21.7184C13.6823 21.1807 12.8104 21.1807 12.2726 21.7184C11.7349 22.256 11.7349 23.1279 12.2726 23.6657L19.647 31.04C19.9158 31.3089 20.2682 31.4432 20.6206 31.4432C20.9729 31.4432 21.3254 31.3088 21.5942 31.04L34.7272 17.907C35.2649 17.3693 35.2649 16.4974 34.7272 15.9597Z" fill="#25D366"/>
</svg>
