<svg id="logo-amp-lr-header" class="logo-lr-svg" xmlns="http://www.w3.org/2000/svg" xmlns:xlink="http://www.w3.org/1999/xlink" x="0px" y="0px" width="200px" height="35.375px" viewBox="0 0 212.5 35.375" enable-background="new 0 0 212.5 35.375" xml:space="preserve">
	<g>
		<path fill="#FFFFFF" d="M201.631,24.948c-1.019,0-1.93-0.492-1.93-2.905c0-2.455,0.594-3.192,2.139-3.296l1.052-0.071v5.575
			C202.645,24.707,202.261,24.948,201.631,24.948 M198.4,27.858c2.424,0,3.788-1.086,4.734-2.203h0.139
			c0.49,1.469,1.896,2.203,4.064,2.203c2.492,0,3.962-0.877,4.699-1.437v-1.054c-0.348,0-1.157-0.104-1.613-0.347
			c-0.663-0.353-0.769-0.842-0.769-2.35V13.56c0-3.684-2.946-4.98-7.433-4.98c-5.961,0-8.451,1.576-8.451,3.856
			c0,1.647,1.021,2.418,2.665,2.418c2.001,0,3.018-0.806,3.188-3.506c0.076-0.984,0.357-1.192,1.161-1.192
			c1.437,0,2.105,0.597,2.105,3.788v2.768l-2.771,0.7c-4.839,1.193-7.01,2.631-7.01,5.818C193.11,26.141,195.069,27.858,198.4,27.858
			 M185.188,27.858c4.101,0,6.73-2.103,7.711-3.507v-1.224c-1.401,0.665-2.733,1.224-4.804,1.224c-3.996,0-5.396-2.765-5.396-7.779
			c0-5.608,1.96-6.379,3.435-6.379c1.124,0,1.298,0.213,1.399,1.399c0.145,1.648,0.774,3.192,2.877,3.192
			c1.647,0,2.7-1.122,2.7-2.735c0-2.346-2.382-3.469-5.959-3.469c-5.261,0-11.114,2.42-11.114,9.639
			C176.037,24.18,179.335,27.858,185.188,27.858 M170.535,7.425c2.031,0,3.607-1.335,3.607-3.332c0-1.996-1.576-3.328-3.607-3.328
			c-2.034,0-3.613,1.332-3.613,3.328C166.922,6.09,168.501,7.425,170.535,7.425 M165.173,27.438h11.042v-1.121l-0.664-0.176
			c-1.37-0.353-1.475-0.453-1.475-2.104V13.276c0-1.611,0.035-2.73,0.139-4.38L173.76,8.58l-8.765,0.875v0.805l1.123,0.841
			c1.051,0.806,1.193,0.947,1.193,2.493v10.442c0,1.618-0.073,1.719-1.473,2.104l-0.666,0.176V27.438z M154.377,27.438h11.251v-1.121
			l-0.667-0.176c-1.51-0.385-1.577-0.453-1.577-2.104V5.317c0-2.345,0.105-4.101,0.105-4.101l-0.456-0.312l-8.83,0.768V2.62
			l1.188,0.595c1.159,0.598,1.229,0.806,1.229,2.667v18.155c0,1.618-0.069,1.719-1.579,2.104l-0.664,0.176V27.438z M144.138,26.283
			c-1.051,0-1.961-0.563-2.417-1.193V12.613c0.424-0.142,1.157-0.425,2.244-0.425c2.279,0,3.54,1.507,3.54,6.521
			C147.505,25.264,146.277,26.283,144.138,26.283 M143.717,27.858c6.138,0,10.694-3.013,10.694-10.655
			c0-6.24-3.543-8.624-6.837-8.624c-2.595,0-4.449,1.297-5.783,2.522h-0.175c0,0,0.104-1.542,0.104-3.642V5.317
			c0-2.345,0.104-4.101,0.104-4.101l-0.454-0.312l-8.729,0.768V2.62l1.193,0.595c1.082,0.563,1.119,0.806,1.119,2.667V25.51
			C137.098,27.02,139.826,27.858,143.717,27.858 M119.534,7.249l6.272-1.228c1.263-0.244,1.786-1.229,1.786-2.138
			c0-1.263-0.875-2.453-2.136-2.453c-0.771,0-1.474,0.348-2.139,1.015l-4.1,4.101L119.534,7.249z M117.988,27.858
			c2.878,0,4.944-1.329,6.835-2.769h0.179l-0.073,2.455l0.457,0.313l8.204-1.192v-0.979l-0.88-0.352
			c-1.155-0.457-1.19-0.629-1.19-2.455V8.896l-0.455-0.316l-8.622,0.875v0.805l1.12,0.74c1.089,0.699,1.192,0.945,1.192,2.488v10.2
			c-0.595,0.177-1.437,0.455-2.493,0.455c-1.327,0-2.063-0.594-2.063-2.697V8.896l-0.458-0.316l-8.623,0.875v0.805l1.123,0.74
			c1.155,0.772,1.193,0.945,1.193,2.488v9.674C113.435,26.283,115.257,27.858,117.988,27.858 M101.055,26.283
			c-1.048,0-1.959-0.563-2.415-1.193V12.613c0.421-0.142,1.157-0.425,2.246-0.425c2.276,0,3.538,1.507,3.538,6.521
			C104.424,25.264,103.196,26.283,101.055,26.283 M89.734,34.766h11.188v-1.12l-0.916-0.211c-1.294-0.283-1.366-0.424-1.366-2.07
			v-1.718c0-1.264-0.07-2.068-0.07-2.068c0.705,0.179,1.822,0.28,2.485,0.28c5.787,0,10.272-3.013,10.272-10.655
			c0-6.24-3.534-8.624-6.833-8.624c-2.592,0-4.417,1.259-5.924,2.627h-0.176l0.072-2.311L98.011,8.58l-8.448,0.875v0.805l1.123,0.841
			c1.051,0.806,1.191,0.947,1.191,2.493v17.77c0,1.608-0.071,1.718-1.473,2.104l-0.669,0.177V34.766z M81.114,10.086
			c1.788,0,2.313,1.299,2.313,5.54l-4.908,0.317C78.625,11.525,79.713,10.086,81.114,10.086 M81.465,27.858
			c3.68,0,6.448-1.854,7.853-3.539v-1.223c-1.367,0.696-3.049,1.255-4.98,1.255c-3.61,0-5.642-1.291-5.819-6.975h11.426
			c-0.174-6.342-3.364-8.797-8.48-8.797c-4.664,0-9.501,3.294-9.501,9.639C71.964,24.352,75.156,27.858,81.465,27.858 M58.432,15.664
			c-0.839,0-1.193-0.071-1.469-0.107V5.108c0.241-0.106,1.017-0.246,1.857-0.246c2.522,0,3.12,1.473,3.12,5.397
			C61.94,14.503,60.817,15.664,58.432,15.664 M46.691,27.438h12.689v-1.154l-0.981-0.244c-1.12-0.283-1.437-0.421-1.437-2.81v-6.097
			c0.276,0.034,1.017,0.071,1.469,0.071c1.019,3.012,3.297,7.923,4.91,10.234h9.112v-1.154l-0.491-0.177
			c-0.699-0.245-0.908-0.245-1.297-0.809c-1.857-2.66-3.993-6.657-5.224-9.672v-0.139c3.054-0.915,4.313-2.563,4.313-5.784
			c0-4.35-3.051-6.556-10.76-6.556H46.691V4.3l0.98,0.248c1.192,0.28,1.543,0.425,1.543,2.808v15.875c0,2.389-0.351,2.526-1.543,2.81
			l-0.98,0.244V27.438z M30.075,24.948c-1.016,0-1.926-0.492-1.926-2.905c0-2.455,0.594-3.192,2.139-3.296l1.048-0.071v5.575
			C31.094,24.707,30.708,24.948,30.075,24.948 M26.851,27.858c2.418,0,3.785-1.086,4.734-2.203h0.139
			c0.491,1.469,1.891,2.203,4.066,2.203c2.487,0,3.965-0.877,4.699-1.437v-1.054c-0.354,0-1.159-0.104-1.617-0.347
			c-0.662-0.353-0.769-0.842-0.769-2.35V13.56c0-3.684-2.946-4.98-7.43-4.98c-5.961,0-8.448,1.576-8.448,3.856
			c0,1.647,1.017,2.418,2.664,2.418c2,0,3.016-0.806,3.187-3.506c0.073-0.984,0.354-1.192,1.158-1.192
			c1.439,0,2.101,0.597,2.101,3.788v2.768l-2.769,0.7c-4.838,1.193-7.012,2.631-7.012,5.818
			C21.555,26.141,23.523,27.858,26.851,27.858 M0.353,27.438h20.542l0.63-9.146H20.26c-1.117,2.629-1.788,3.855-2.63,5.22
			c-1.083,1.787-1.682,2.21-4.308,2.21c-2.525,0-2.665-0.423-2.665-2.979V7.355c0-2.383,0.278-2.527,1.541-2.808L13.393,4.3V3.147
			H0.353V4.3l0.98,0.248c1.19,0.28,1.542,0.425,1.542,2.808v15.875c0,2.389-0.352,2.526-1.542,2.81l-0.98,0.244V27.438z"></path>
	</g>
</svg>