<svg xmlns="http://www.w3.org/2000/svg" width="97" height="16"><path d="M8.5 13.1c-.7.7-2.2.6-2.2.6-1 0-1-1.1-1-1.1V3.4c0-.4.7-.5.7-.5l.8-.2v-.6H0v.6l.7.2c.6.2.5 1 .5 1v9.2c0 .8-1.2.9-1.2.9v.6h10.6l.4-4.7h-.7s-1 2.5-1.8 3.2zm14.7-.1c-.6-1-2.3-4.5-2.3-4.5s1.5-.2 2-1.4.6-3.6-1.9-4.4c0 0-1.1-.4-3.8-.4h-6v.6s1.1 0 1.2.6 0 8.7 0 8.7v.7s0 .8-.6 1l-.6.1v.6h6.6V14s-1.2-.1-1.2-.7v-4h.7s1.5 3.9 2.5 5.3h4.8V14c-.1 0-.8-.1-1.4-1zm-4.6-5c-.7.8-2.1.5-2.1.5V3.1s1.7-.4 2.2.4c.5.9.6 3.6-.1 4.5z" fill="#ef0000"/><g fill="#5a5a5a"><path d="M39.2 14h-1.3v-1.9c0-.1-.2-.3-.4-.3s-.4.1-.4.3V14h-1.3c-.2 0-.3.2-.3.4s.1.4.3.4h3.3c.2 0 .3-.2.3-.4.1-.3 0-.4-.2-.4z"/><path d="M41.1 7.9c0-.2-.2-.4-.4-.4s-.4.2-.4.4c0 0 .2 1.8-.7 2.9-.4.5-1.1.8-1.9.8s-1.5-.3-1.9-.8c-.9-1.1-.7-2.8-.7-2.9 0-.2-.1-.4-.4-.4-.2 0-.4.1-.4.4 0 .1-.3 2.2.9 3.5.6.7 1.5 1.1 2.6 1.1s1.9-.4 2.6-1.1c.9-1.3.7-3.4.7-3.5zM35.4 9a2.22 2.22 0 0 0 2.2 2.2A2.22 2.22 0 0 0 39.8 9V6.4a2.22 2.22 0 0 0-2.2-2.2 2.22 2.22 0 0 0-2.2 2.2V9zm5-7.5c-.1-.1-.8-1.1-2.9-1.1s-2.8 1-2.9 1.1c-.1.2-.1.4.1.5.1.1.1.1.2.1s.2-.1.3-.2c0 0 .6-.8 2.3-.8s2.3.7 2.3.8c.1.1.2.2.3.2s.2 0 .2-.1c.2-.1.3-.3.1-.5zm-1.1 1.6c-.1-.1-.5-.6-1.7-.6s-1.7.6-1.7.6c-.1.2-.1.4.1.5.1.1.4.1.5-.1 0 0 .3-.4 1.2-.4s1.1.4 1.2.4c.1.1.2.1.3.1s.2 0 .2-.1c.1-.1.1-.2.1-.3-.2.1-.2 0-.2-.1zm4.2 1.4h3.1c1.8 0 2.9 1.1 2.9 2.6 0 1.8-1.4 2.7-3.1 2.7h-1.2v2.3h-1.7V4.5zm3 3.9c.8 0 1.3-.5 1.3-1.2S47.3 6 46.5 6h-1.3v2.3l1.3.1zm3.9 0c0-2.2 1.7-3.9 4-3.9s4 1.7 4 3.9c0 2.1-1.7 3.9-4 3.9-2.4-.1-4-1.8-4-3.9zm6.2 0c0-1.3-1-2.4-2.3-2.4s-2.2 1-2.2 2.3 1 2.4 2.3 2.4 2.2-1.1 2.2-2.3zm3.2-3.9h2.9c2.4 0 4 1.6 4 3.7s-1.6 3.8-4 3.8h-2.9V4.5zm3 6.1c1.4 0 2.3-.9 2.3-2.3 0-1.3-.9-2.3-2.3-2.3h-1.3v4.5h1.3zm5.1-2.2c0-2.2 1.6-3.9 3.9-3.9 1.4 0 2.3.5 3 1.2l-1.1 1.2c-.6-.5-1.2-.9-1.9-.9-1.3 0-2.2 1.1-2.2 2.4s.9 2.4 2.2 2.4c.9 0 1.4-.4 2-.9l1.1 1.1c-.8.8-1.6 1.3-3.1 1.3-2.2-.1-3.9-1.8-3.9-3.9zm10.9-3.9h1.5l3.2 7.6h-1.7l-.7-1.7h-3.2l-.7 1.7h-1.7l3.3-7.6zm1.7 4.4l-1-2.5-1 2.5h2zM84 11l1-1.2c.7.6 1.4.9 2.3.9.7 0 1.1-.3 1.1-.7s-.3-.6-1.5-1c-1.5-.4-2.5-.8-2.5-2.3 0-1.4 1.1-2.3 2.6-2.3 1.1 0 2 .4 2.8 1l-.9 1.2c-.7-.5-1.3-.7-1.9-.7s-1 .3-1 .7c0 .5.3.7 1.6 1 1.5.4 2.4 1 2.4 2.3 0 1.5-1.1 2.3-2.8 2.3-1.1 0-2.3-.4-3.2-1.2zm9.1-4.9h-2.3V4.5H97V6h-2.3v6H93l.1-5.9zM29.6 0h.5v16h-.5V0z"/></g></svg>