<svg enable-background="new 0 0 249 39.6" height="39.6" viewBox="0 0 249 39.6" width="249" xmlns="http://www.w3.org/2000/svg"><g fill="#fff" fill-rule="evenodd"><path d="m7.1 9.2.1 4.7h.1c1-2.6 3.3-4.8 6.8-4.8 4.5 0 5.8 2.2 5.8 6.5v8.4c0 2.6.2 5.2.8 7.2h-7.2c.6-1.9.7-4.2.7-7v-8c0-2-.8-2.9-2.9-2.9-1.6 0-2.9.4-3.8 1.3v9.6c0 2.8.1 5.1.7 7h-7.4c.6-2 .8-4.6.8-7.2v-7.8c0-2.1-.8-4-1.6-5z"/><path d="m30.8 9.1c5.6 0 7.7 2.2 7.7 6.8v9.6c0 1.7.7 2.2 2 2.2.2 0 .9-.1 1.2-.3-.1.6-.2 1-.4 1.4-.6 1.8-1.8 3-4.2 3-2.8 0-4.2-1.9-4.2-4h-.1c-.9 2.8-2.7 4-5.6 4-3.5 0-5.7-2.1-5.7-5.4 0-3.4 3.1-4.9 6.4-6.2 3.1-1.2 4.8-2.1 4.8-4.3v-.4c0-2.4-.8-3.7-3-3.7-1.4 0-2 .6-2.3 2-.4 2.1-1.3 2.8-2.7 2.8-1.2 0-2.4-.8-2.4-2.4 0-3 4.2-5.1 8.5-5.1zm1.9 18v-7.8c-.4.6-1 1-2.6 1.8-2 1-2.8 2.1-2.8 4.4 0 1.9 1 3.1 2.7 3.1 1.7-.1 2.2-.7 2.7-1.5z"/><path d="m54.2 28.9c-.8 1.7-2.6 2.8-5.2 2.8-4.4 0-6.2-2.2-6.2-6.3v-12.8h-2.1v-.2l7.8-8h.1v5h5.5l-.6 3h-5v11.8c0 2.3 1 3.2 3 3.2 1.6 0 2.4-.2 3.1-.6-.1 1-.2 1.4-.4 2.1z"/><path d="m61.6 9.4v15c0 2.2.9 3.5 3 3.5 1.8 0 3.2-.6 4-1.6v-10.2c0-2.2-.2-4.1-.9-6l6.7-.7v15.3c0 3.4.4 4.9.9 6.5h-6.5v-4.3h-.1c-.9 2.8-2.7 4.8-6.4 4.8-4.7 0-6.4-2.8-6.4-7.1v-8.5c0-2.2-.2-4.1-.9-6z"/><path d="m83.6 14.7c1-4 2.8-5.6 5.2-5.6 2.2 0 3.4 1.2 3.4 3 0 1.7-.9 3-2.7 3-1 0-1.6-.4-2-.9-.5-.4-.8-.9-1.3-.9-1.2 0-2.4 1.9-2.4 5.2v5.4c0 2.7.2 5.3.7 7.3h-7.2c.6-2 .8-4.6.8-7.2v-7.8c0-2.1-.8-4-1.6-5l7.1-2h.1z"/><path d="m101.7 31.7c-5.5 0-10.1-3.7-10.1-10.7 0-7.2 4.4-11.9 10.2-11.9 5.6 0 8.2 3.6 8.2 10.2h-12.7v.7c0 5.4 2.8 7.5 6.6 7.5 3.4 0 5-1.4 6-2.4l.1.4c-.9 3.2-3.5 6.2-8.3 6.2zm-4.3-13.9 7.2-.6c-.1-3.4-.6-5.5-3-5.5s-3.8 2-4.2 6.1z"/><path d="m123.6 13.7c.8-2.1 3.6-4.6 6.9-4.6 4.5 0 7.7 3.2 7.7 10.5 0 6.4-3.3 12.1-11.2 12.1-3.8 0-6.8-.9-9.1-2v-22.4c0-2.8-.7-4.3-1.5-5.4l7.4-2h.1l-.2 5.7v8.1zm3.4 15.3c3.6 0 4.9-3.3 4.9-8.6 0-5.2-1.2-7.4-4.4-7.4-1.5 0-3.2.8-3.8 1.7v13.2c.9.7 2.1 1.1 3.3 1.1z"/><path d="m146.3 14.7c1-4 2.8-5.6 5.2-5.6 2.2 0 3.4 1.2 3.4 3 0 1.7-.9 3-2.7 3-1 0-1.6-.4-2-.9-.5-.4-.8-.9-1.3-.9-1.2 0-2.4 1.9-2.4 5.2v5.4c0 2.7.2 5.3.7 7.3h-7.2c.6-2 .8-4.6.8-7.2v-7.8c0-2.1-.8-4-1.6-5l7.1-2h.1z"/><path d="m162.4 24c0 2.6.2 5.2.8 7.2h-7.4c.6-2 .8-4.6.8-7.2v-7.8c0-2.1-.8-4-1.6-5l7.5-2h.1l-.2 5.4zm-6.6-19.6c0-1.9 1.4-3.4 3.5-3.4s3.5 1.5 3.5 3.4-1.4 3.4-3.5 3.4c-2.1.1-3.5-1.5-3.5-3.4z"/><path d="m175 31.7c-5.5 0-10.1-3.7-10.1-10.7 0-7.2 4.4-11.9 10.2-11.9 5.6 0 8.2 3.6 8.2 10.2h-12.7v.7c0 5.4 2.8 7.5 6.6 7.5 3.4 0 5-1.4 6-2.4l.1.4c-.9 3.2-3.5 6.2-8.3 6.2zm-4.3-13.9 7.2-.6c-.1-3.4-.6-5.5-3-5.5s-3.9 2-4.2 6.1z"/><path d="m203.2 24c0 2.6.2 5.2.8 7.2h-7.4c.6-2 .8-4.6.8-7.2v-9c0-.8 0-1.6-.1-2.3h-5.5v11.3c0 2.8.3 5.4.9 7.3h-7.4c.6-2 .8-4.6.8-7.2v-11.5h-2.4v-.2l2.4-2.6v-1.2c0-5.9 4.4-8.6 8.8-8.6 5.6 0 7.6 1.9 7.6 4.3 0 1.7-1 2.8-2.9 2.8-1.7 0-2.8-.9-3.2-2.5-.3-1.4-.7-2.2-2-2.2-1.5 0-2.6 1-2.6 3.8v3.4h4.9l6.6-.4h.1l-.2 5.4z"/><path d="m211.8 9.2.1 4.7h.1c1-2.6 3.3-4.8 6.8-4.8 4.5 0 5.8 2.2 5.8 6.5v8.4c0 2.6.2 5.2.8 7.2h-7.2c.6-1.9.7-4.2.7-7v-8c0-2-.8-2.9-2.9-2.9-1.6 0-2.9.4-3.8 1.3v9.6c0 2.8.1 5.1.7 7h-7.2c.6-2 .8-4.6.8-7.2v-7.8c0-2.1-.8-4-1.6-5z"/><path d="m241.5 10.9h.1c1-1.9 3-2.8 4.2-2.8 1.9 0 3.1 1 3.1 2.5 0 1.4-.7 2.6-2.2 2.6-1.1 0-1.6-.6-1.9-1.1-.4-.4-.7-.9-1.5-.9-.4 0-.7.1-1 .3 1.2 1.4 2 3.1 2 4.8 0 5.1-4.2 7.8-8.8 7.8-1.2 0-2.5-.2-3.7-.6-.6.4-.9 1-.9 1.7 0 .8.6 1.5 2 1.5 2.6 0 6.5-.2 9-.2 3.6 0 5.7 1.5 5.7 5 0 5.2-4.7 8.1-12.1 8.1-6.9 0-9.8-1.9-9.8-4.2 0-2 2.5-3 5.5-3.4v-.1c-2.1-.4-4-2.1-4-4.4s1.6-3.7 3.8-4.3v-.2c-2.5-1.1-4.4-3.2-4.4-6.2 0-5.1 4.2-7.8 8.8-7.8 2.3.1 4.6.7 6.1 1.9zm-6 26.3c5.5 0 7.8-1.7 7.8-3.5 0-1.3-.8-1.8-2.6-1.8-2.3 0-7.6.2-8.6.4-1 .1-1.6 1.1-1.6 2-.1 1.8 1.4 2.9 5 2.9zm3.4-20.8c0-3.2-1.4-4.8-3.5-4.8-2.2 0-3.4 1.5-3.4 5.2 0 3.2 1.4 4.8 3.5 4.8 2.2 0 3.4-1.5 3.4-5.2z"/></g></svg>