<?xml version="1.0" encoding="utf-8"?>
<!-- Generator: Adobe Illustrator 20.0.0, SVG Export Plug-In . SVG Version: 6.00 Build 0)  -->
<svg version="1.1" id="Capa_1" xmlns="http://www.w3.org/2000/svg" xmlns:xlink="http://www.w3.org/1999/xlink" x="0px" y="0px"
	 viewBox="0 0 103 45" style="enable-background:new 0 0 103 45;" xml:space="preserve">
<style type="text/css">
	.st0{fill:#19BEB6;}
</style>
<g>
	<path class="st0" d="M27.2,12.9h3.7L15.3,44.8L0.1,12.9h7.4l9.8,20L27.2,12.9z"/>
	<path class="st0" d="M33.9,4.4c0-1.1,0.4-2,1.2-2.8c0.8-0.8,1.7-1.2,2.8-1.2c1.2,0,2.1,0.4,3,1.2c0.8,0.8,1.2,1.7,1.2,2.8
		s-0.4,2-1.2,2.8c-0.8,0.8-1.8,1.2-3,1.2c-1.1,0-2-0.4-2.8-1.2C34.3,6.5,33.9,5.5,33.9,4.4z M34.3,44.6V12.9h7.4v31.7H34.3z"/>
	<path class="st0" d="M46,15v-2.1h4V7l7.3-3.6v9.5h6.5V15h-6.4v16.8c0,3,0.1,5,0.3,6c0.2,1,0.8,2,1.7,3c0.9,1,2.1,1.5,3.5,1.7v2.2
		c-2.8,0-5.7-0.9-8.6-2.6c-2.9-1.7-4.4-4.7-4.4-8.9V15H46z"/>
	<path class="st0" d="M91.8,44.6h-7.4v-1.7c-1,0.6-2,1.1-3.1,1.3c-1.1,0.2-2.9,0.3-5.4,0.3c-1.6,0-3-0.2-4.4-0.7
		c-1.4-0.5-2.5-1.2-3.5-2c-1-0.8-1.8-1.8-2.3-3c-0.6-1.1-0.9-2.3-0.9-3.6c0-1.3,0.3-2.5,0.9-3.7c0.6-1.2,1.4-2.2,2.3-3
		c1-0.8,2.2-1.5,3.5-2c1.4-0.5,2.8-0.7,4.4-0.7c2.4,0,4.2,0.2,5.4,0.5c1.1,0.3,2.2,0.8,3.2,1.4V26c0-0.9-0.1-1.9-0.2-3.2
		c-0.1-1.2-0.5-2.5-1-3.6c-0.6-1.2-1.4-2.1-2.4-3c-1-0.8-2.4-1.2-4.2-1.2c-1.3,0-2.7,0.3-4,0.9s-2.5,1.4-3.7,2.4v-2.2
		c0.9-0.6,2.3-1.3,4.1-2.1c1.8-0.8,4-1.1,6.7-1.1c3.6,0,6.5,1.1,8.8,3.3c2.2,2.2,3.4,5.1,3.4,8.5V44.6z M84.4,29.2
		c-1.3-0.9-3-1.3-5.1-1.3c-1.9,0-3.6,0.7-5,2.1c-1.4,1.4-2.1,3.1-2.1,5.1c0,2,0.8,3.7,2.3,5s3.3,2,5.3,2c1.5,0,3-0.3,4.6-1V29.2z"/>
	<path class="st0" d="M103,44.6h-7.4V0.2h7.4V44.6z"/>
</g>
</svg>
