<?xml version="1.0" encoding="utf-8"?>
<!-- Generator: Adobe Illustrator 20.0.0, SVG Export Plug-In . SVG Version: 6.00 Build 0)  -->
<svg version="1.1" id="Capa_1" xmlns="http://www.w3.org/2000/svg" xmlns:xlink="http://www.w3.org/1999/xlink" x="0px" y="0px"
	 viewBox="0 0 39.1 8.3" style="enable-background:new 0 0 39.1 8.3;" xml:space="preserve">
<style type="text/css">
	.st0{fill:#211915;}
	.st1{fill:#BE0811;}
</style>
<g>
	<g>
		<path class="st0" d="M1.6,6.1c-0.3,0-0.9,0-1.1,0c-0.3,0-0.3-0.2-0.3-0.2V0.5c0,0,0-0.4,0.5-0.4c0.1,0,1.3,0,1.8,0
			c0.2,0,0.2,0.2,0.2,0.2l1.8,4.3V0.3c0,0,0-0.3,0.2-0.3c0.2,0,0.7,0,1.1,0c0.3,0,0.3,0.3,0.3,0.3v5.5c0,0,0,0.3-0.3,0.3
			c-0.5,0-1.7,0-1.9,0c-0.3,0-0.3-0.2-0.3-0.2L1.8,1.6v4.3C1.8,5.8,1.8,6.1,1.6,6.1z"/>
		<path class="st0" d="M6.6,2.5c0-0.9,0.2-1.6,0.5-1.9C7.5,0.2,8.1,0,9,0h0.8c0.9,0,1.5,0.2,1.8,0.5c0.3,0.4,0.5,1,0.5,1.9v1.3
			c0,0.9-0.2,1.5-0.5,1.9c-0.3,0.4-1,0.5-1.8,0.5H9C8.1,6.2,7.5,6,7.2,5.6c-0.3-0.4-0.5-1-0.5-1.9V2.5z M8.3,2.6v1
			c0,0.5,0.1,0.8,0.2,1c0.1,0.1,0.4,0.2,0.7,0.2h0.3c0.4,0,0.6-0.1,0.7-0.2c0.1-0.1,0.2-0.5,0.2-1v-1c0-0.5-0.1-0.8-0.2-1
			c-0.1-0.1-0.4-0.2-0.7-0.2H9.2c-0.4,0-0.6,0.1-0.7,0.2C8.4,1.8,8.3,2.1,8.3,2.6z"/>
		<path class="st0" d="M15.3,6.1c-0.2,0-1,0-1.2,0c-0.3,0-0.2-0.2-0.2-0.2V1.4c0,0-1.2,0-1.4,0c-0.2,0-0.2-0.1-0.2-0.1v-1
			c0,0,0-0.2,0.2-0.2c0.2,0,4.3,0,4.5,0c0.1,0,0.1,0.2,0.1,0.2v1c0,0,0,0.2-0.2,0.2s-1.4,0-1.4,0v4.4C15.5,5.8,15.5,6.1,15.3,6.1z"
			/>
		<path class="st0" d="M19.2,6.1h-1.3c0,0-0.2,0-0.2-0.2c0-0.1,0-5.6,0-5.7c0-0.2,0.2-0.2,0.2-0.2h1.4c0,0,0.1,0,0.1,0.2
			c0,0.1,0,5.5,0,5.7C19.3,6.1,19.2,6.1,19.2,6.1z"/>
		<path class="st0" d="M26.9,6.1h-1.3c0,0-0.2,0-0.2-0.2c0-0.1,0-5.6,0-5.7c0-0.2,0.2-0.2,0.2-0.2H27c0,0,0.1,0,0.1,0.2
			c0,0.1,0,5.5,0,5.7C27.1,6.1,26.9,6.1,26.9,6.1z"/>
		<path class="st0" d="M23.5,3.8c0.1,0,1.2,0,1.3,0C25,3.8,25,4,25,4c0,0.8-0.2,1.4-0.5,1.7c-0.4,0.3-0.9,0.5-1.7,0.5h-0.6
			c-0.9,0-1.5-0.2-1.8-0.5c-0.3-0.4-0.5-1-0.5-1.9V2.5c0-0.9,0.2-1.6,0.5-1.9c0.3-0.4,1-0.5,1.8-0.5h0.5c0.9,0,1.5,0.2,1.8,0.5
			C24.8,0.8,25,1.3,25,2.1c0,0,0,0.1,0,0.1c0,0,0,0.1-0.2,0.1c-0.2,0-1.1,0-1.2,0c-0.2,0-0.2-0.1-0.2-0.1c0-0.1,0-0.1,0-0.2
			c0-0.2-0.1-0.3-0.2-0.4c-0.1-0.1-0.4-0.2-0.7-0.2c-0.4,0-0.6,0.1-0.7,0.2c-0.1,0.1-0.2,0.5-0.2,1v1c0,0.5,0.1,0.8,0.2,1
			c0.1,0.1,0.4,0.2,0.7,0.2c0.3,0,0.6-0.1,0.7-0.2c0.1-0.1,0.2-0.3,0.2-0.7C23.3,3.9,23.4,3.8,23.5,3.8z"/>
		<path class="st0" d="M29.3,6.1c-0.1,0-1.3,0-1.5,0c-0.2,0-0.1-0.2-0.1-0.2l1.7-5.8c0,0,0-0.1,0.2-0.1c0.1,0,2.2,0,2.3,0
			C32,0.1,32,0.2,32,0.2l1.6,5.8c0,0,0.1,0.2-0.1,0.2c-0.2,0-1.3,0-1.5,0c-0.1,0-0.2-0.1-0.2-0.1l-0.2-0.8c0,0,0-0.1-0.1-0.1
			c-0.1,0-1.7,0-1.8,0c-0.1,0-0.1,0.1-0.1,0.1l-0.2,0.8C29.5,5.9,29.4,6.1,29.3,6.1z M30.1,3.7c0,0,0,0.1,0.1,0.1c0.1,0,1,0,1.1,0
			c0.1,0,0.1-0.1,0.1-0.1l-0.6-2.4h-0.1L30.1,3.7z"/>
		<path class="st0" d="M33.8,4.4c0-0.1,0.2-0.1,0.2-0.1s1.2,0,1.3,0c0.1,0,0.1,0.1,0.1,0.1c0,0.2,0.1,0.4,0.2,0.5
			c0.1,0.1,0.3,0.1,0.6,0.1h0.4c0.2,0,0.4,0,0.5-0.1c0.1-0.1,0.2-0.2,0.2-0.4V4.2c0-0.1,0-0.2-0.1-0.3c-0.1-0.1-0.3-0.1-0.5-0.1
			l-1.3-0.1c-0.5-0.1-0.9-0.2-1.1-0.5c-0.2-0.3-0.3-0.6-0.3-1.1V1.6c0-0.3,0-0.5,0.1-0.8c0.1-0.2,0.2-0.4,0.4-0.5
			c0.1-0.1,0.3-0.2,0.5-0.3C35.1,0,35.4,0,35.8,0h1c0.6,0,1.1,0.1,1.4,0.4c0.3,0.2,0.5,0.6,0.5,1.1v0.3c0,0,0,0.1-0.1,0.1
			c-0.1,0-1.2,0-1.3,0c-0.1,0-0.1-0.1-0.1-0.1c0,0,0,0,0,0c0-0.2,0-0.3-0.1-0.3c-0.1-0.1-0.2-0.1-0.5-0.1h-0.4c-0.3,0-0.4,0-0.5,0.1
			c-0.1,0.1-0.1,0.2-0.1,0.3v0.3c0,0.2,0.2,0.4,0.7,0.4l1.2,0.1c0.5,0.1,0.9,0.2,1.2,0.5c0.3,0.2,0.4,0.6,0.4,1v0.6
			c0,0.5-0.2,0.9-0.5,1.2c-0.3,0.3-0.7,0.4-1.3,0.4h-1.3c-0.7,0-1.2-0.1-1.6-0.4c-0.3-0.2-0.5-0.6-0.5-1.2
			C33.8,4.6,33.8,4.5,33.8,4.4z"/>
	</g>
	<rect y="7.8" class="st1" width="39.1" height="0.6"/>
</g>
</svg>
