<svg xmlns="http://www.w3.org/2000/svg" xmlns:xlink="http://www.w3.org/1999/xlink" version="1.1" id="Capa_1" x="0" y="0" viewBox="0 0 45 45" xml:space="preserve" enable-background="new 0 0 45 45">
  <style type="text/css">
    
	.st0{fill:#F7E000;}
	.st1{fill-rule:evenodd;clip-rule:evenodd;}

  </style>
  <path class="st0" d="M0 22.5C0 10.1 10.1 0.1 22.5 0.1c12.4 0 22.5 10 22.5 22.4 0 12.4-10.1 22.4-22.5 22.4C10.1 44.9 0 34.9 0 22.5"/>
  <path d="M11.6 26.6c2.4-0.5 4.2-2.7 4.2-5.3 0-3-2.4-5.4-5.4-5.4 -3 0-5.4 2.4-5.4 5.4v8.1h2.2v-3.7c2.2 2.3 5.3 3.7 8.7 3.7v-1.9C14.3 27.5 12.9 27.2 11.6 26.6M7.2 21.4c0-1.8 1.5-3.3 3.3-3.3 1.8 0 3.3 1.5 3.3 3.3 0 1.8-1.5 3.3-3.3 3.3C8.7 24.6 7.2 23.2 7.2 21.4"/>
  <path class="st1" d="M22.9 16c-3 0-5.4 2.4-5.4 5.4v8.1h2.2v-3.8c0.9 0.7 2 1.1 3.2 1.1 3 0 5.4-2.4 5.4-5.4C28.3 18.4 25.9 16 22.9 16M22.9 24.6c-1.8 0-3.2-1.4-3.2-3.2s1.4-3.2 3.2-3.2c1.8 0 3.2 1.4 3.2 3.2S24.7 24.6 22.9 24.6"/>
  <path class="st1" d="M34.6 16c-3 0-5.4 2.4-5.4 5.4v8.1h2.2v-3.8c0.9 0.7 2 1.1 3.2 1.1 3 0 5.4-2.4 5.4-5.4C40 18.4 37.6 16 34.6 16M34.6 24.6c-1.8 0-3.2-1.4-3.2-3.2 0-1.8 1.4-3.2 3.2-3.2 1.8 0 3.2 1.4 3.2 3.2C37.8 23.1 36.3 24.6 34.6 24.6"/>
</svg>
